<svg width="352" height="258" viewBox="0 0 352 258" fill="none" xmlns="http://www.w3.org/2000/svg">
<path d="M160.841 257.258C236.155 257.258 297.209 246.864 297.209 234.043C297.209 221.222 236.155 210.828 160.841 210.828C85.5272 210.828 24.4731 221.222 24.4731 234.043C24.4731 246.864 85.5272 257.258 160.841 257.258Z" stroke="#10416F" stroke-width="0.7859" stroke-miterlimit="10"/>
<path d="M160.841 239.221C173.188 239.221 183.197 236.903 183.197 234.044C183.197 231.185 173.188 228.867 160.841 228.867C148.494 228.867 138.485 231.185 138.485 234.044C138.485 236.903 148.494 239.221 160.841 239.221Z" fill="#FF9A67"/>
<path d="M314.818 234.043H0" stroke="#10416F" stroke-width="0.8096" stroke-miterlimit="10"/>
<path d="M226.295 147.349C225.92 146.664 225.533 145.956 225.248 145.249C224.263 142.805 224.358 140.164 224.458 137.368C224.517 135.733 224.576 134.043 224.401 132.393L224.319 131.621L223.615 131.946C222.498 132.461 221.33 132.894 220.136 133.234L205.301 137.731L207.959 147.663L208.067 147.77C208.216 147.918 211.778 151.39 216.632 151.788L216.669 151.791L218.733 151.688C219.625 153.735 221.264 155.127 223.281 155.534C223.658 155.61 224.036 155.646 224.401 155.646C225.476 155.646 226.443 155.327 226.983 154.757C227.625 154.078 227.962 153.084 227.932 151.961C227.884 150.256 227.076 148.778 226.295 147.349Z" fill="#10416F"/>
<path d="M87.9509 212.703L84.0179 217.153C84.0179 217.153 100.18 227.296 94.0329 234.695C94.0329 234.695 82.5629 228.898 64.6479 218.095C62.9379 217.064 62.2559 214.861 63.2059 213.105C63.2219 213.076 63.2369 213.048 63.2539 213.019C64.8739 210.127 72.7789 201.887 72.7789 201.887L87.9509 212.703Z" fill="#10416F"/>
<path d="M89.7541 240.956C89.1651 239.809 88.5131 238.692 87.8021 237.615C87.4411 237.067 87.0551 236.505 86.9501 235.857C86.7261 234.474 88.0451 233.051 89.0491 232.072L69.7311 221.129L83.1401 228.725C82.0671 229.458 81.7241 231.095 81.4931 232.374C81.4381 232.676 81.3681 232.994 81.1601 233.22C80.7801 233.635 80.1141 233.579 79.5711 233.429C78.5951 233.159 77.6841 232.696 76.7971 232.207C73.6451 230.473 70.6851 228.388 67.9901 226.005C67.7101 225.758 67.4181 225.482 67.3371 225.117C67.2641 224.787 67.3801 224.445 67.5301 224.143C68.0821 223.032 68.0821 223.032 69.4491 220.965L64.7391 218.102C63.0111 218.849 61.2701 219.843 59.7461 220.947C58.7631 221.66 57.7391 222.638 57.8221 223.849C57.8661 224.503 58.2371 225.087 58.6351 225.608C59.6201 226.896 79.5691 238.676 81.9601 239.936C83.5831 240.791 85.2081 241.648 86.9051 242.344C87.5741 242.618 88.2821 242.871 89.0021 242.806C89.3761 242.772 89.7751 242.624 89.9531 242.294C90.1751 241.879 89.9681 241.374 89.7541 240.956Z" fill="#D2DBDA"/>
<path d="M69.4492 220.965L69.7312 221.129L69.4492 220.965Z" fill="#D2DBDA"/>
<path d="M169.302 143.362C172.571 146.659 177.771 152.066 180.536 155.796L164.82 206.787L187.708 209.725L204.034 159.166C205.874 153.831 207.72 147.988 205.825 142.672C204.942 140.194 203.305 138.059 201.552 136.098C199.371 133.658 195.136 130.09 192.551 128.082L169.302 143.362Z" fill="#0065A3"/>
<path d="M135.998 149.804C137.233 154.476 131.906 162.166 129.473 166.341C122.648 178.054 113.741 188.394 104.888 198.661C100.114 204.198 95.3391 209.734 90.5651 215.271L70.6001 200.264L106.976 150.741C106.824 148.528 107.801 143.455 107.65 141.242L135.998 149.804Z" fill="#0065A3"/>
<path d="M183.226 113.765C187.1 118.656 191.966 123.193 195.839 128.084C187.653 134.783 176.754 143.495 167.105 147.828C160.33 140.982 154.441 131.394 148.189 124.068C146.554 133.796 143.997 144.189 141.077 153.612C128.651 150.455 115.875 146.539 103.894 141.975C106.812 127.827 110.037 113.945 114.106 100.083C114.106 100.083 116.706 92.3228 122.376 86.1328L167.165 87.6908L183.226 113.765Z" fill="#10416F"/>
<path opacity="0.45" d="M192.971 130.418C186.518 135.635 178.832 141.554 171.504 145.611L173.809 148.024L193.72 131.619L192.971 130.418Z" fill="#0065A3"/>
<path opacity="0.45" d="M136.109 152.314C126.489 149.73 116.92 146.759 107.587 143.344L107.244 146.595L135.756 154.09C135.756 154.09 135.992 153.07 136.109 152.314Z" fill="#0065A3"/>
<path d="M201.402 45.1258C201.781 45.3798 203.072 46.3228 203.072 46.3228C207.494 41.6958 208.355 40.5378 212.343 36.1328L224.516 46.6358C224.693 46.5518 215.782 55.3598 216.365 57.7708C216.464 58.1818 217.735 59.5968 218.525 60.3048C212.193 61.7228 203.875 60.5688 203.875 60.5688C196.377 55.6818 201.023 44.8708 201.402 45.1258Z" fill="#F7AE8C"/>
<path d="M208.518 40.4141C208.518 40.4141 210.026 47.4011 218.412 50.8071C218.412 50.8071 210.929 50.3991 206.761 42.3751L208.518 40.4141Z" fill="#F7AE8C"/>
<path d="M171.747 62.2308C165.224 61.0138 158.807 59.2248 152.595 56.8928C153.882 61.3508 155.597 66.2478 156.446 70.8098L136.714 76.0338C133.849 69.1418 131.528 62.0248 129.778 54.7698C128.467 49.3338 127.7 42.9298 131.414 38.7488C134.05 35.7818 138.232 34.8218 142.15 34.1888C154.831 32.1408 167.796 31.8558 180.555 33.3428C183.661 33.7048 186.792 34.1818 189.678 35.3848C194.318 37.3188 199.531 42.7518 203.071 46.3208L202.595 59.1048L216.363 57.7678L220.241 61.5678C224.847 66.0618 225.743 71.5498 225.257 77.9658C224.771 84.3828 222.686 90.5548 221.353 96.8508C218.817 108.827 219.03 121.376 221.969 133.259L205.978 138.104C204.475 134.809 202.972 131.515 201.469 128.22C200.637 126.397 199.798 124.551 199.439 122.58C199.058 120.49 199.232 118.344 199.406 116.226C199.87 110.602 200.334 104.977 200.799 99.3528L181.228 114.341C181.228 114.341 162.735 120.767 141.814 115.341C120.893 109.914 113.253 98.9178 113.253 98.9178C113.253 98.9178 116.537 82.8818 133.103 71.7638" fill="#0065A3"/>
<path opacity="0.67" d="M115.221 101.191C118.648 104.703 126.82 111.453 141.814 115.342C162.735 120.769 181.228 114.342 181.228 114.342C181.228 114.342 169.236 122.594 144.363 118.311C138.093 117.232 131.999 115.18 126.481 112.014C121.922 109.4 117.183 105.751 115.221 101.191Z" fill="#0065A3"/>
<path d="M151.523 56.2885C150.287 56.1645 149.197 55.6585 148.197 55.0345C147.215 54.3815 146.306 53.5965 145.686 52.5195C146.862 52.9105 147.833 53.4945 148.801 54.1005C149.75 54.7355 150.681 55.3795 151.523 56.2885Z" fill="#10416F"/>
<path d="M185.894 209.493L184.533 215.273C184.533 215.273 203.563 216.586 201.644 226.01C201.644 226.01 188.801 226.314 167.916 225.247C165.922 225.145 164.281 223.525 164.288 221.529C164.288 221.496 164.289 221.464 164.289 221.43C164.349 218.116 167.418 207.121 167.418 207.121L185.894 209.493Z" fill="#10416F"/>
<path d="M200.834 233.55C199.773 232.817 198.671 232.14 197.536 231.526C196.959 231.213 196.354 230.9 195.955 230.379C195.104 229.266 195.593 227.388 196.015 226.052L173.827 225.524L189.228 225.891C188.629 227.044 189.101 228.649 189.501 229.885C189.596 230.177 189.684 230.49 189.607 230.788C189.468 231.333 188.855 231.598 188.306 231.722C187.319 231.945 186.298 231.966 185.286 231.954C181.69 231.913 178.097 231.473 174.597 230.644C174.233 230.558 173.846 230.453 173.602 230.169C173.382 229.913 173.322 229.556 173.312 229.219C173.273 227.979 173.273 227.979 173.501 225.511L168 225.211C166.831 226.686 165.767 228.383 164.947 230.076C164.418 231.168 163.978 232.514 164.624 233.542C164.972 234.097 165.574 234.438 166.171 234.709C167.647 235.379 190.786 236.347 193.488 236.33C195.321 236.318 197.158 236.306 198.981 236.118C199.7 236.044 200.443 235.933 201.046 235.535C201.359 235.329 201.641 235.01 201.641 234.635C201.641 234.165 201.22 233.818 200.834 233.55Z" fill="#D2DBDA"/>
<path d="M173.501 225.512L173.827 225.524L173.501 225.512Z" fill="#D2DBDA"/>
<path d="M293.93 233.651C302.363 242.636 305.954 241.145 314.972 240.95C316.707 240.913 346.952 238.523 349.63 234.929C353.076 230.305 349.017 225.314 349.017 225.314L342.317 226.224C330.499 228.245 302.403 230.46 302.403 230.46L147.228 82.6484L142.597 86.6894L293.93 233.651Z" fill="#FF9A67"/>
<path d="M335.733 255.143H311.631V249.953C311.631 248.406 312.885 247.152 314.432 247.152H333.212C334.604 247.152 335.733 248.281 335.733 249.673V255.143Z" fill="#10416F"/>
<path d="M218.63 8.02482C213.866 13.8548 209.649 24.3098 208.205 30.2338C207.618 32.6418 207.035 35.1438 207.451 37.5878C209.504 49.6588 219.858 51.8898 223.837 51.5748C226.96 51.3268 229.924 50.2608 232.374 48.3088C238.626 43.3268 243.647 36.8128 246.874 29.4998C246.874 29.4998 255.169 13.4518 238.086 5.52983C238.086 5.52983 226.585 -1.70918 218.63 8.02482Z" fill="#F7AE8C"/>
<path d="M218.659 27.4212C218.283 27.8692 218.341 28.5372 218.789 28.9132C219.237 29.2892 219.905 29.2312 220.281 28.7822C220.657 28.3342 220.599 27.6661 220.151 27.2901C219.704 26.9151 219.035 26.9732 218.659 27.4212Z" fill="#3C3C3B"/>
<path d="M223.526 27.1714C222.889 26.3534 222.174 25.6294 221.325 25.0814C220.495 24.5044 219.557 24.1214 218.567 23.8314C218.416 23.7894 218.328 23.6324 218.37 23.4814C218.405 23.3574 218.521 23.2754 218.644 23.2734C219.779 23.2784 220.887 23.7094 221.831 24.3364C222.756 24.9914 223.553 25.8674 223.975 26.9174C224.028 27.0504 223.964 27.2014 223.83 27.2554C223.72 27.2994 223.596 27.2594 223.526 27.1714Z" fill="#3C3C3B"/>
<path d="M233.685 32.6837C234.816 32.6767 235.929 33.0817 236.886 33.6907C237.824 34.3267 238.643 35.1887 239.077 36.2377C239.137 36.3827 239.068 36.5487 238.924 36.6087C238.804 36.6577 238.668 36.6167 238.591 36.5207C237.946 35.7137 237.237 34.9907 236.388 34.4407C235.559 33.8637 234.618 33.4757 233.619 33.1957C233.48 33.1587 233.398 33.0157 233.435 32.8777C233.466 32.7617 233.572 32.6867 233.685 32.6837Z" fill="#3C3C3B"/>
<path d="M227.782 32.4752C227.457 33.5892 227.05 34.6792 226.566 35.7332C226.523 35.8272 226.473 35.9272 226.382 35.9762C226.281 36.0302 226.157 36.0052 226.047 35.9732C225.561 35.8292 225.118 35.5452 224.784 35.1652C224.687 35.0552 224.596 34.9312 224.566 34.7882C224.507 34.5072 224.688 34.2372 224.86 34.0072C225.301 33.4152 225.743 32.8232 226.185 32.2302C226.391 31.9532 226.61 31.6662 226.923 31.5202C227.236 31.3742 227.67 31.4252 227.844 31.7222C227.849 31.9962 227.816 32.2702 227.747 32.5352" fill="#F47F61"/>
<path d="M224.35 37.8535C223.744 37.3985 223.199 36.8625 222.736 36.2635C222.37 35.7905 222.054 35.2795 221.693 34.8025C221.613 34.6965 221.515 34.5835 221.382 34.5715C221.32 34.5655 221.258 34.5835 221.2 34.6045C220.448 34.8815 220.098 35.8265 220.297 36.6035C220.496 37.3795 221.116 37.9855 221.804 38.3975C222.221 38.6475 222.685 38.8445 223.17 38.8515C223.656 38.8585 224.165 38.6445 224.412 38.2265C224.474 38.1215 224.497 37.9515 224.382 37.9105" fill="white"/>
<path d="M233.77 36.8852C233.523 37.4162 233.752 38.0463 234.283 38.2933C234.813 38.5403 235.444 38.3103 235.691 37.7803C235.938 37.2503 235.709 36.6192 235.178 36.3722C234.647 36.1262 234.017 36.3552 233.77 36.8852Z" fill="#3C3C3B"/>
<path d="M210.388 153.83C211.01 153.624 212.158 152.455 212.711 152.808C213.3 153.183 213.401 153.995 213.366 154.692C213.312 155.738 213.062 156.82 212.379 157.614C211.696 158.408 210.562 158.66 209.557 158.364C207.346 157.713 207.378 153.179 208.038 151.566L210.388 153.83Z" fill="#10416F" stroke="#0F416E" stroke-width="2.2263" stroke-miterlimit="10"/>
<path d="M211.608 158.471C211.624 159.13 211.715 159.803 212.016 160.39C212.318 160.976 212.86 161.468 213.511 161.576C214.377 161.72 215.221 161.169 215.778 160.49C216.536 159.566 216.934 158.391 217.122 157.21C217.268 156.292 217.268 155.262 216.682 154.54C216.093 153.813 214.949 153.613 214.148 154.096L211.608 158.471Z" fill="#10416F" stroke="#0F416E" stroke-width="2.2263" stroke-miterlimit="10"/>
<path d="M215.06 161.335C215.193 161.909 215.342 162.514 215.751 162.939C216.195 163.401 216.891 163.566 217.524 163.465C218.157 163.364 218.731 163.025 219.217 162.607C220.321 161.658 221.028 160.261 221.139 158.81C221.203 157.975 221.061 157.091 220.554 156.425C220.047 155.759 219.119 155.376 218.336 155.671L215.06 161.335Z" fill="#10416F" stroke="#0F416E" stroke-width="2.2263" stroke-miterlimit="10"/>
<path d="M217.313 163.959C217.658 164.848 218.643 165.391 219.597 165.376C220.551 165.361 221.45 164.863 222.117 164.182C222.784 163.5 223.247 162.646 223.645 161.78C224.029 160.945 224.37 160.029 224.207 159.124C224.045 158.219 223.193 157.38 222.29 157.554L217.313 163.959Z" fill="#10416F" stroke="#0F416E" stroke-width="2.2263" stroke-miterlimit="10"/>
<path opacity="0.53" d="M212.219 18.7042C211.52 20.4402 211.877 22.4602 212.744 24.1192C213.611 25.7782 214.937 27.1432 216.261 28.4662C221.537 33.7412 227.184 38.8482 233.964 41.9622C235.805 42.8082 238.016 43.4842 239.786 42.4982C240.626 42.0302 244.417 38.8472 246.784 34.5702L219.47 11.3672L212.219 18.7042Z" fill="white"/>
<path d="M233.964 41.9623C235.314 42.3393 236.687 42.6663 237.963 42.5493C238.589 42.4733 239.199 42.2933 239.669 41.9523C240.179 41.5783 240.707 41.1213 241.199 40.6573C242.207 39.7403 243.167 38.7593 244.095 37.7473C245.013 36.7253 245.917 35.6823 246.785 34.5703C245.798 37.2273 244.022 39.5433 241.951 41.4773C241.413 41.9513 240.886 42.4113 240.249 42.8293C239.546 43.2493 238.759 43.4323 237.997 43.4143C236.464 43.3813 235.137 42.7223 233.964 41.9623Z" fill="#D2DBDA"/>
<path d="M208.741 35.4888C208.863 34.0458 209.095 32.6148 209.46 31.2028C209.618 30.5558 209.817 29.9188 210.032 29.2828C211.133 27.4178 212.363 24.7398 212.912 23.5428L212.292 23.2578C211.785 24.3628 210.691 26.7508 209.67 28.5518C209.65 28.4218 209.63 28.2898 209.61 28.1578C209.543 27.7108 209.474 27.2628 209.396 26.8248L208.724 26.9468C208.802 27.3788 208.869 27.8188 208.936 28.2598C209.003 28.7068 209.072 29.1548 209.15 29.5928L209.155 29.6208C208.241 31.3938 207.663 33.3608 207.428 35.3518C207.232 36.8798 207.274 38.4638 207.64 39.9788C208.017 41.4828 208.7 42.9498 209.797 44.0268C209.279 42.5928 208.94 41.1968 208.791 39.7708C208.63 38.3508 208.628 36.9248 208.741 35.4888Z" fill="#1D1D1B"/>
<path d="M209.219 91.2539C208.137 92.9199 206.818 94.3419 205.443 95.7069C204.044 97.0469 202.587 98.3269 200.891 99.3629C201.971 97.6949 203.29 96.2729 204.667 94.9099C206.068 93.5719 207.525 92.2909 209.219 91.2539Z" fill="#10416F"/>
<path d="M138.219 76.1686C141.505 83.0326 140.438 81.0696 141.505 83.0326C141.218 84.3146 141.234 86.2466 141.115 87.5556C140.902 89.9016 140.977 92.3426 141.928 94.4976C142.879 96.6526 144.851 98.4706 147.194 98.7076C148.158 99.8176 150.081 100.349 151.545 100.477C153.009 100.605 154.524 100.307 155.666 99.3806L152.906 96.4326C152.206 95.6846 151.699 94.7596 151.543 93.7466C151.385 92.7186 151.55 91.5466 152.845 90.9746C155.435 89.8296 159.77 94.5566 159.77 94.5566C159.77 94.5566 163.237 90.7766 156.821 83.9866L154.848 71.7656L138.219 76.1686Z" fill="#10416F"/>
<path d="M155.434 66.457C155.671 67.167 155.89 67.881 156.102 68.597C156.314 69.313 156.542 70.025 156.74 70.744L156.81 71L156.536 71.1C150.129 73.453 143.629 75.512 137.048 77.315L136.691 77.4131L136.587 77.0891C135.982 75.2021 135.404 73.305 134.876 71.389C135.721 73.187 136.516 75.0041 137.284 76.8311L136.823 76.605C143.248 74.309 149.754 72.269 156.353 70.524L156.15 70.88C156.011 70.147 155.902 69.4081 155.776 68.6721C155.653 67.9361 155.534 67.199 155.434 66.457Z" fill="#10416F"/>
<path d="M250.241 12.2664C246.182 3.34737 236.431 -0.54164 228.571 0.0603603C226.481 0.22036 224.405 0.670358 222.462 1.48036C215.309 4.46436 210.721 12.1654 209.643 20.0414L210.683 21.3104C210.676 21.7484 210.645 22.1874 210.567 22.6184C210.536 22.7894 210.501 22.9684 210.557 23.1324C210.621 23.3164 210.785 23.4424 210.942 23.5584C211.553 24.0084 212.165 24.4584 212.776 24.9084C215.051 22.3684 217.286 19.7934 219.479 17.1824C220.015 16.5434 221.127 15.6134 221.462 14.6644C235.481 30.0124 247.35 35.2544 247.35 35.2544C247.67 34.7534 255.38 23.5614 250.241 12.2664Z" fill="#10416F"/>
<path d="M209.233 26.8503C208.398 27.1943 207.354 26.9483 206.76 26.2653C206.297 25.7333 206.12 25.0123 206.031 24.3133C205.796 22.4693 206.135 20.4443 207.434 19.1173C207.757 18.7883 208.149 18.5013 208.603 18.4183C209.359 18.2813 210.123 18.7533 210.554 19.3893C210.985 20.0253 211.194 22.2873 211.194 23.7463L209.233 26.8503Z" fill="#F7AE8C"/>
<path d="M208.781 20.1378C209.379 20.7598 209.756 21.5658 210.003 22.3918C210.214 23.2298 210.254 24.1238 210.033 24.9578C210.013 25.0348 209.934 25.0808 209.857 25.0598C209.789 25.0418 209.745 24.9768 209.75 24.9088C209.811 24.0958 209.765 23.2848 209.56 22.5058C209.391 21.7148 209.02 20.9868 208.577 20.3018C208.537 20.2408 208.554 20.1588 208.615 20.1188C208.668 20.0838 208.738 20.0938 208.781 20.1378Z" fill="#DA806C"/>
<path d="M209.86 22.9278C209.393 23.2018 208.945 23.4938 208.6 23.9008C208.231 24.2798 207.945 24.7258 207.694 25.2058C207.658 25.2778 207.57 25.3058 207.499 25.2698C207.44 25.2398 207.411 25.1728 207.423 25.1108C207.544 24.5348 207.865 24.0128 208.269 23.5848C208.698 23.1848 209.19 22.8278 209.761 22.6838C209.832 22.6658 209.905 22.7088 209.923 22.7798C209.938 22.8388 209.909 22.8988 209.86 22.9278Z" fill="#DA806C"/>
<path d="M86.0192 219.379C85.7272 219.797 85.5222 220.153 85.2742 220.592L85.2702 220.6C85.2212 220.687 85.1122 220.717 85.0252 220.668C84.9712 220.638 84.9392 220.583 84.9342 220.525C84.8892 219.931 85.2802 219.338 85.8292 219.125C85.9142 219.092 86.0092 219.134 86.0422 219.219C86.0622 219.272 86.0542 219.329 86.0242 219.372L86.0192 219.379Z" fill="#D2DBDA"/>
<path d="M87.3384 220.564C87.1234 220.893 87.0204 221.141 86.8914 221.502L86.8834 221.526C86.8494 221.62 86.7454 221.669 86.6514 221.636C86.6034 221.619 86.5664 221.583 86.5474 221.539C86.3294 221.049 86.6584 220.415 87.1714 220.294C87.2604 220.273 87.3504 220.328 87.3724 220.418C87.3834 220.464 87.3734 220.51 87.3504 220.547L87.3384 220.564Z" fill="#D2DBDA"/>
<path d="M88.9764 221.909C88.7904 222.195 88.7204 222.389 88.6184 222.702L88.6064 222.74C88.5754 222.835 88.4734 222.887 88.3784 222.856C88.3364 222.842 88.3024 222.814 88.2804 222.78C88.0064 222.339 88.3284 221.69 88.8334 221.626C88.9244 221.614 89.0084 221.679 89.0204 221.77C89.0254 221.811 89.0164 221.85 88.9954 221.882L88.9764 221.909Z" fill="#D2DBDA"/>
<path d="M90.6653 223.319C90.4373 223.63 90.3403 223.878 90.2463 224.239L90.2383 224.269C90.2133 224.365 90.1143 224.423 90.0183 224.398C89.9703 224.385 89.9313 224.353 89.9073 224.313C89.6293 223.823 89.9753 223.128 90.5193 223.037C90.6093 223.022 90.6953 223.083 90.7103 223.173C90.7183 223.219 90.7063 223.263 90.6803 223.298L90.6653 223.319Z" fill="#D2DBDA"/>
<path d="M187.536 216.268C187.443 216.769 187.404 217.179 187.36 217.68V217.689C187.351 217.788 187.264 217.861 187.165 217.853C187.103 217.848 187.051 217.811 187.023 217.761C186.735 217.239 186.846 216.538 187.257 216.116C187.321 216.051 187.425 216.05 187.49 216.113C187.531 216.153 187.546 216.208 187.537 216.26L187.536 216.268Z" fill="#D2DBDA"/>
<path d="M189.133 216.676C189.074 217.065 189.083 217.333 189.115 217.715L189.117 217.74C189.125 217.84 189.051 217.927 188.952 217.936C188.901 217.94 188.852 217.923 188.817 217.891C188.415 217.535 188.453 216.822 188.87 216.5C188.943 216.444 189.048 216.457 189.104 216.53C189.133 216.568 189.144 216.613 189.137 216.657L189.133 216.676Z" fill="#D2DBDA"/>
<path d="M190.953 217.056C190.903 217.393 190.918 217.599 190.956 217.926L190.96 217.966C190.971 218.065 190.9 218.154 190.801 218.166C190.757 218.171 190.715 218.16 190.68 218.137C190.247 217.849 190.273 217.125 190.705 216.857C190.783 216.809 190.886 216.833 190.934 216.911C190.955 216.946 190.963 216.985 190.957 217.023L190.953 217.056Z" fill="#D2DBDA"/>
<path d="M192.769 217.427C192.69 217.805 192.705 218.07 192.768 218.439L192.773 218.47C192.79 218.568 192.724 218.661 192.626 218.678C192.576 218.687 192.527 218.674 192.49 218.646C192.033 218.315 192.061 217.54 192.519 217.231C192.595 217.18 192.698 217.2 192.749 217.276C192.775 217.315 192.783 217.36 192.774 217.402L192.769 217.427Z" fill="#D2DBDA"/>
<path opacity="0.38" d="M72.7771 201.887L87.9511 212.703L86.7131 214.103L70.6001 204.204L72.7771 201.887Z" fill="#10416F"/>
<path opacity="0.38" d="M167.417 207.121L185.894 209.493L185.518 211.087L166.528 210.447L167.417 207.121Z" fill="#10416F"/>
<path d="M179.688 77.1087C179.271 74.7637 180.295 72.5188 181.773 71.2308C185.192 68.2528 190.2 68.6528 194.223 73.2678C198.38 78.0368 197.984 82.9298 194.565 85.9078C192.532 87.6788 189.95 87.7618 188.124 86.9728C188.932 89.9508 187.652 92.9598 185.558 94.7858C181.77 98.0858 176.082 97.4658 171.764 92.5128C167.311 87.4038 167.583 81.8098 171.371 78.5078C173.373 76.7648 176.902 75.9627 179.688 77.1087ZM176.163 88.7328C177.477 90.2408 179.436 90.8088 181.156 89.3618C183.313 87.4838 181.664 84.5368 180.492 83.0658C179.164 82.6008 177.335 82.6778 176.195 83.6698C174.748 84.9318 174.823 87.1958 176.163 88.7328ZM190.289 76.5878C189.242 75.3868 187.433 75.1778 186.417 76.0638C184.723 77.5388 186.185 79.8378 187.04 80.8808C188.081 81.3278 189.436 81.3918 190.36 80.5868C191.468 79.6208 191.362 77.8188 190.289 76.5878Z" fill="white"/>
<path d="M111.707 190.688L90.3232 173.414L98.7762 161.906L120.392 179.858C120.392 179.858 115.212 186.796 113.459 188.742L111.707 190.688Z" fill="white"/>
<path d="M175.359 172.594L199.429 173.43L195.319 186.158L171.341 185.631L175.359 172.594Z" fill="white"/>
<path d="M173.031 32.6726L168.477 61.5677C168.477 61.5677 166.093 61.0877 163.48 60.3637C163.48 60.3637 167.397 37.1177 168.477 32.4647C168.477 32.4647 170.464 32.1596 173.031 32.6726Z" fill="white"/>
<path d="M200.457 103.497L220.448 101.938L220.001 105.581L200.141 107.333L200.457 103.497Z" fill="white"/>
<path d="M249.134 32.0533C246.266 30.4723 243.503 28.7373 240.81 26.8833C238.114 25.0363 235.519 23.0392 233.016 20.9252C230.539 18.7832 228.169 16.4972 226.068 13.9572C224.006 11.4052 222.138 8.58325 221.233 5.35425L221.898 5.15625C222.389 6.66925 223.133 8.09425 223.994 9.43925C224.845 10.7923 225.815 12.0743 226.857 13.2973C228.951 15.7393 231.284 17.9813 233.738 20.0843C236.18 22.2043 238.753 24.1762 241.378 26.0762C244.009 27.9652 246.696 29.7983 249.447 31.5023L249.134 32.0533Z" fill="#0065A3"/>
<path d="M233.407 20.5373C234.374 19.1543 235.22 17.6503 235.934 16.1193C236.635 14.5783 237.229 12.9883 237.558 11.3443C237.891 9.70333 237.956 8.02933 237.725 6.39033C237.494 4.74033 236.793 3.21733 235.96 1.75633L235.944 1.72833C235.85 1.56233 235.907 1.35133 236.073 1.25633C236.228 1.16833 236.422 1.21233 236.524 1.35333C237.569 2.78833 238.414 4.42433 238.738 6.21333C239.053 7.99133 238.984 9.81633 238.643 11.5693C238.249 13.3113 237.629 14.9853 236.821 16.5533C236.004 18.1193 235.065 19.6013 233.897 20.9413C233.782 21.0733 233.581 21.0873 233.449 20.9723C233.326 20.8653 233.306 20.6833 233.397 20.5523L233.407 20.5373Z" fill="#0065A3"/>
<path d="M240.628 25.6605C241.551 24.0695 242.353 22.3775 243.037 20.6655C243.698 18.9445 244.306 17.1935 244.602 15.3855C244.933 13.5895 245.043 11.7625 244.831 9.96548C244.571 8.17548 243.933 6.47549 242.997 4.90549L242.985 4.88647C242.887 4.72247 242.941 4.50948 243.106 4.41148C243.259 4.32048 243.456 4.36249 243.561 4.50249C244.718 6.05849 245.501 7.88948 245.848 9.81348C246.139 11.7445 246.025 13.6985 245.692 15.5915C245.336 17.4845 244.711 19.3035 243.949 21.0475C243.171 22.7885 242.276 24.4605 241.155 26.0165C241.052 26.1585 240.854 26.1905 240.712 26.0885C240.579 25.9925 240.542 25.8125 240.622 25.6725L240.628 25.6605Z" fill="#0065A3"/>
</svg>
