<svg width="218" height="289" viewBox="0 0 218 289" fill="none" xmlns="http://www.w3.org/2000/svg">
<path d="M15.7658 266.809C13.0438 263.016 11.3849 258.469 11.0239 253.814C10.9409 252.735 10.9349 251.603 11.4139 250.632C11.8919 249.662 12.9879 248.917 14.0389 249.174C14.7219 249.341 15.2458 249.875 15.7148 250.399C17.3288 252.202 18.7638 254.165 19.9918 256.249C19.4698 253.882 19.7198 251.351 20.6938 249.131C20.8568 248.759 21.0608 248.373 21.4158 248.176C22.4658 247.594 23.4648 249.017 23.8328 250.16C24.3718 251.832 24.9108 253.505 25.4508 255.177C25.6318 251.428 26.4138 247.709 27.7568 244.205C28.2388 242.948 28.9309 241.587 30.2119 241.176C31.5199 240.756 32.9779 241.556 33.7259 242.709C34.4729 243.862 34.6608 245.282 34.7588 246.653C34.9878 249.826 34.8439 253.025 34.3299 256.164C35.3899 254.197 36.4499 252.23 37.5109 250.263C38.1319 249.111 39.1818 247.767 40.4328 248.151C41.6458 248.524 41.8038 250.159 41.6798 251.422C41.1428 256.91 39.7259 262.311 37.4979 267.356L15.7658 266.809Z" fill="#277424"/>
<path d="M198.289 267.366C196.839 265.346 195.955 262.924 195.763 260.444C195.719 259.869 195.716 259.266 195.97 258.749C196.225 258.232 196.808 257.836 197.368 257.973C197.732 258.062 198.011 258.347 198.261 258.626C199.12 259.586 199.885 260.632 200.539 261.742C200.261 260.481 200.394 259.133 200.913 257.951C201 257.753 201.108 257.547 201.298 257.442C201.857 257.132 202.389 257.89 202.586 258.499C202.873 259.39 203.16 260.281 203.447 261.171C203.544 259.174 203.96 257.193 204.675 255.327C204.932 254.657 205.3 253.933 205.983 253.713C206.68 253.489 207.456 253.915 207.855 254.529C208.253 255.143 208.353 255.9 208.405 256.63C208.527 258.32 208.45 260.024 208.177 261.696C208.742 260.648 209.306 259.601 209.871 258.553C210.202 257.939 210.761 257.223 211.427 257.428C212.073 257.627 212.157 258.498 212.091 259.17C211.805 262.093 211.05 264.97 209.864 267.657L198.289 267.366Z" fill="#277424"/>
<path d="M110.294 288.12C169.633 288.12 217.737 281.412 217.737 273.136C217.737 264.861 169.633 258.152 110.294 258.152C50.9545 258.152 2.85059 264.861 2.85059 273.136C2.85059 281.412 50.9545 288.12 110.294 288.12Z" fill="#88CE77"/>
<path d="M138.054 78.0742C138.308 82.9062 138.494 87.1432 138.937 89.0942C138.937 89.0942 168.944 84.2372 170.496 84.6482C171.092 84.1772 171.069 82.9972 171.252 82.2602C171.435 81.5232 171.652 80.7312 172.246 80.2592C172.841 79.7872 173.93 79.9032 174.134 80.6342C174.255 81.0672 174.03 81.5112 173.919 81.9472C173.807 82.3832 173.892 82.9692 174.325 83.0942C174.66 83.1902 174.993 82.9422 175.224 82.6812C176.245 81.5282 176.617 79.7932 177.932 78.9922C178.27 78.7862 178.69 78.6572 179.06 78.7952C179.477 78.9502 179.718 79.4122 179.734 79.8562C179.75 80.3002 179.582 80.7292 179.39 81.1302C178.897 82.1602 178.226 83.1052 177.415 83.9092C178.06 82.9572 178.738 82.0272 179.447 81.1222C179.761 80.7222 180.15 80.2912 180.658 80.2852C181.163 80.2792 181.586 80.7322 181.693 81.2262C181.8 81.7202 181.656 82.2332 181.457 82.6972C180.926 83.9392 179.984 85.0012 178.814 85.6752C179.502 85.0112 180.19 84.3472 180.879 83.6822C181.434 83.1462 182.222 82.5712 182.902 82.9372C183.404 83.2082 183.544 83.8802 183.45 84.4432C183.148 86.2612 181.163 87.3042 179.338 87.5582C180.154 87.6652 180.885 87.1062 181.647 86.7952C182.408 86.4842 183.547 86.6052 183.713 87.4102C183.788 87.7712 183.624 88.1382 183.42 88.4452C182.516 89.8062 178.547 92.7312 173.719 92.2912C173.719 92.2912 135.913 108.315 130.866 103.416C128.892 101.5 127.823 98.8582 127.023 96.2262C125.701 91.8782 124.8 87.4032 124.334 82.8832L138.054 78.0742Z" fill="#F7AE8C"/>
<path d="M110.351 186.053C112.058 196.304 117.488 207.015 121.944 216.27C129.246 231.436 136.799 246.456 144.6 261.321C144.6 261.321 148.206 261.907 151.265 258.357C153.639 255.602 151.424 249.894 149.689 244.689C146.092 233.896 142.813 222.941 139.82 211.905C138.424 206.757 137.024 201.59 136.273 196.278C135.893 193.588 135.681 190.869 135.242 188.191C134.583 184.173 133.412 180.261 131.772 176.601C131.772 176.601 128.512 171.022 121.218 172.246C113.922 173.47 109.663 181.921 110.351 186.053Z" fill="#F7AE8C"/>
<path d="M22.0139 180.681C27.7849 183.189 59.9329 193.665 65.7039 196.173C70.2809 198.162 75.1599 200.189 80.0359 199.237C81.3829 198.974 82.7069 198.478 83.8519 197.653C85.8219 196.234 87.1199 193.97 88.3559 191.777C90.1299 188.628 92.5599 184.035 94.3339 180.886L74.0519 169.48C73.8219 171.304 73.5059 173.115 73.1039 174.905L71.7059 174.458C58.1679 171.07 40.4149 169.793 25.4999 171.296C25.4999 171.296 20.3949 172.023 20.2169 174.53C20.0389 177.039 22.0139 180.681 22.0139 180.681Z" fill="#F7AE8C"/>
<path d="M123.026 127.09C123.611 130.796 123.793 132.345 124.378 135.727C125.078 139.779 125.672 142.866 126.689 146.867C128.824 155.273 130.959 163.679 133.094 172.084C133.33 173.012 133.551 174.049 133.049 174.87C132.671 175.488 131.964 175.839 131.294 176.159C129.585 176.974 127.876 177.789 126.167 178.604C122.593 180.308 119.145 182.158 115.591 183.899C113.517 184.915 111.403 185.944 109.104 186.323C108.575 186.41 108.01 186.458 107.516 186.252C106.876 185.985 106.498 185.359 106.17 184.77C104.435 181.655 101.35 174.266 99.9536 171.001C99.9536 171.001 111.361 133.01 119.267 127.726C119.267 127.726 122.676 124.872 123.026 127.09Z" fill="#FF6F2F"/>
<path d="M80.6476 117.52C75.3956 120.294 72.0016 134.65 71.8776 136.84C71.3216 146.731 70.3026 156.595 68.8276 166.384C68.7826 166.68 68.7396 166.994 68.8436 167.269C68.9466 167.54 69.1736 167.727 69.3906 167.899C74.3266 171.822 83.9876 181.299 98.6356 183.504C100.001 180.296 101.365 177.089 102.73 173.881C103.416 172.268 104.102 170.656 104.788 169.043C106.239 165.632 107.69 162.222 109.141 158.811C111.519 153.221 113.22 147.464 115.598 141.874C117.425 137.58 118.25 135.183 122.865 126.898C122.865 126.898 106.714 132.109 93.9386 125.265C83.7116 119.786 80.6476 117.52 80.6476 117.52Z" fill="#FF9A67"/>
<path d="M138.054 78.0744C137.581 69.0514 136.175 58.1374 126.595 54.1164C122.07 51.6164 117.588 49.9654 112.576 48.6994C107.563 47.4334 101.532 47.7884 96.9849 50.2474C87.3409 55.4634 84.0319 80.7214 83.7729 83.2894C82.6119 94.8514 81.1929 105.911 80.6479 117.518C80.6479 117.518 89.0709 126.315 105.656 128.717C112.282 129.676 116.928 129.987 122.867 126.898C123.309 126.668 122.663 100.465 124.997 82.6484L138.054 78.0744Z" fill="#0081DB"/>
<path d="M85.3486 76.4764C81.6436 78.4004 77.9626 80.3824 74.8756 83.1684C74.4006 83.5974 73.9176 84.0844 73.7896 84.7124C73.6786 85.2514 73.8486 85.8034 74.0216 86.3254C76.0556 92.4784 80.4346 98.1444 83.7166 103.732C84.2806 103.645 84.8856 103.693 85.4496 103.606C86.1356 103.501 86.8746 103.404 87.4906 103.723C88.1056 104.043 88.4416 104.964 87.9436 105.446C87.7206 105.662 87.3906 105.739 87.1686 105.954C86.8106 106.3 86.8436 106.908 87.0956 107.337C87.3476 107.767 87.7646 108.068 88.1516 108.381C88.8336 108.931 89.4796 109.595 89.7166 110.438C89.9536 111.281 89.6496 112.328 88.8516 112.689C88.4346 112.877 87.9566 112.857 87.5066 112.943C85.8066 113.266 84.7256 115.02 83.0906 115.588C81.7966 116.037 80.2896 115.638 79.2716 114.722C78.2536 113.806 77.2516 111.294 77.1846 109.926C75.0466 107.861 64.7226 95.6154 62.2826 90.6814C59.8436 85.7474 59.2726 79.5234 62.2506 74.8944C63.2236 73.3824 64.5196 72.1104 65.8046 70.8534C68.9566 67.7684 72.1086 64.6824 75.2606 61.5974C76.3196 60.5614 77.3806 59.5234 78.4736 58.5234" fill="#F7AE8C"/>
<path d="M85.3486 76.4761C86.4196 75.9201 87.4926 75.3692 88.5536 74.8042C93.2856 72.2872 114.877 53.1301 111.494 48.9731C96.9956 43.4941 87.3476 51.6371 81.9156 55.6561C80.7136 56.5451 79.5776 57.5141 78.4736 58.5231L85.3486 76.4761Z" fill="#0081DB"/>
<path d="M149.291 257.762C145.287 259.955 143.594 259.398 143.594 259.398L146.19 267.13C146.714 268.979 147.43 271.059 149.094 271.736C150.211 272.191 151.463 271.869 152.618 271.513C159.727 269.321 166.493 265.977 173.223 262.634C174.661 261.92 176.363 260.7 176.086 259.015C175.886 257.795 174.71 257.105 173.631 256.716C170.631 255.633 167.365 256.01 164.239 255.48C160.127 254.782 156.361 254.255 152.283 254.427C152.283 254.427 150.653 257.016 149.291 257.762Z" fill="#0065A3"/>
<path d="M175.224 257.586C175.493 258.783 170.693 261.013 170.693 261.013C162.633 265.607 147.57 269.623 147.57 269.623L147.146 269.744C147.606 270.638 148.218 271.381 149.092 271.737C150.209 272.192 151.462 271.87 152.617 271.514C159.726 269.322 166.492 265.978 173.222 262.635C174.66 261.921 176.362 260.701 176.085 259.016C175.999 258.493 175.704 257.978 175.344 257.632L175.224 257.586Z" fill="#E9F0F3"/>
<path d="M151.273 263.1C151.225 263.915 150.526 264.537 149.711 264.489C148.896 264.441 148.274 263.742 148.322 262.927C148.37 262.112 149.069 261.49 149.884 261.538C150.699 261.585 151.321 262.285 151.273 263.1Z" fill="#E9F0F3"/>
<path d="M163.669 255.603C163.53 256.108 163.367 256.569 163.274 257.056C163.151 257.536 163.105 258.02 163.004 258.532L163.002 258.539C162.974 258.682 162.836 258.776 162.693 258.748C162.596 258.729 162.522 258.657 162.493 258.569C162.315 258.018 162.358 257.428 162.477 256.87C162.627 256.319 162.862 255.779 163.264 255.365C163.357 255.27 163.51 255.268 163.605 255.361C163.67 255.424 163.692 255.516 163.669 255.597V255.603Z" fill="#E9F0F3"/>
<path d="M160.93 255.19C160.86 255.687 160.738 256.141 160.671 256.611C160.57 257.076 160.529 257.541 160.411 258.028L160.41 258.034C160.375 258.176 160.232 258.263 160.09 258.228C159.996 258.205 159.926 258.134 159.9 258.048C159.743 257.528 159.779 256.984 159.868 256.459C159.989 255.941 160.166 255.426 160.502 255.002C160.585 254.897 160.737 254.879 160.842 254.963C160.911 255.017 160.941 255.108 160.93 255.19Z" fill="#E9F0F3"/>
<path d="M158.413 254.901C158.376 255.396 158.272 255.85 158.212 256.317C158.12 256.778 158.077 257.24 157.944 257.717C157.907 257.859 157.763 257.944 157.621 257.907C157.528 257.883 157.458 257.807 157.432 257.722C157.29 257.213 157.328 256.687 157.406 256.177C157.516 255.672 157.669 255.17 157.973 254.739C158.05 254.63 158.202 254.604 158.311 254.681C158.383 254.731 158.419 254.819 158.413 254.901Z" fill="#E9F0F3"/>
<path d="M155.401 254.575C155.258 255.195 155.097 255.779 155.018 256.386C154.908 256.987 154.886 257.591 154.821 258.221C154.809 258.365 154.682 258.471 154.538 258.459C154.432 258.45 154.345 258.374 154.312 258.28C154.097 257.627 154.11 256.926 154.209 256.252C154.341 255.583 154.564 254.921 154.976 254.373C155.055 254.267 155.205 254.246 155.311 254.325C155.39 254.385 155.421 254.486 155.401 254.575Z" fill="#E9F0F3"/>
<path d="M22.1728 176.205C23.8428 171.956 25.4998 171.299 25.4998 171.299L18.5528 167.025C16.9658 165.941 15.0838 164.802 13.3718 165.348C12.2228 165.715 11.4678 166.764 10.8088 167.777C6.75483 174.014 3.70083 180.917 0.67483 187.795C0.02783 189.265 -0.497171 191.291 0.794829 192.408C1.72983 193.216 3.07483 192.993 4.15283 192.601C7.15083 191.511 9.41683 189.129 12.1568 187.534C15.7618 185.435 18.9908 183.428 22.0118 180.684C22.0138 180.683 21.6048 177.65 22.1728 176.205Z" fill="#0065A3"/>
<path d="M2.37281 192.952C1.39981 192.205 3.65681 187.418 3.65681 187.418C6.90281 178.727 15.8968 165.994 15.8968 165.994L16.1448 165.63C15.2188 165.239 14.2728 165.061 13.3728 165.348C12.2238 165.715 11.4688 166.764 10.8098 167.777C6.75581 174.014 3.70181 180.917 0.675807 187.795C0.0288066 189.265 -0.496195 191.291 0.795806 192.408C1.19681 192.755 1.75281 192.961 2.25181 192.996L2.37281 192.952Z" fill="#E9F0F3"/>
<path d="M17.232 173.377C16.747 172.721 16.885 171.795 17.542 171.31C18.198 170.824 19.124 170.963 19.609 171.619C20.094 172.275 19.956 173.201 19.299 173.686C18.644 174.172 17.718 174.033 17.232 173.377Z" fill="#E9F0F3"/>
<path d="M12.5157 187.074C12.2987 186.597 12.1287 186.138 11.8877 185.706C11.6757 185.258 11.4007 184.857 11.1507 184.4L11.1477 184.394C11.0777 184.266 11.1247 184.106 11.2517 184.036C11.3387 183.989 11.4407 183.995 11.5187 184.044C12.0087 184.353 12.3537 184.834 12.6197 185.338C12.8567 185.858 13.0227 186.422 12.9787 186.998C12.9687 187.131 12.8527 187.23 12.7197 187.22C12.6287 187.213 12.5537 187.157 12.5187 187.08L12.5157 187.074Z" fill="#E9F0F3"/>
<path d="M14.8825 185.632C14.6175 185.206 14.4205 184.779 14.1705 184.374C13.9505 183.953 13.6835 183.569 13.4625 183.12L13.4605 183.115C13.3965 182.984 13.4505 182.825 13.5815 182.761C13.6685 182.718 13.7685 182.728 13.8435 182.778C14.2975 183.076 14.6185 183.518 14.8865 183.977C15.1265 184.453 15.3195 184.961 15.3335 185.502C15.3365 185.636 15.2305 185.747 15.0975 185.751C15.0085 185.753 14.9265 185.702 14.8825 185.632Z" fill="#E9F0F3"/>
<path d="M17.0029 184.247C16.7139 183.843 16.5039 183.428 16.2499 183.031C16.0249 182.618 15.7629 182.236 15.5589 181.784C15.4959 181.652 15.5529 181.494 15.6849 181.431C15.7719 181.39 15.8739 181.403 15.9489 181.452C16.3849 181.752 16.6919 182.18 16.9589 182.621C17.1979 183.079 17.4019 183.563 17.4439 184.088C17.4539 184.221 17.3549 184.339 17.2209 184.349C17.1339 184.358 17.0509 184.314 17.0029 184.247Z" fill="#E9F0F3"/>
<path d="M19.5228 182.565C19.2348 181.998 18.9848 181.445 18.6568 180.93C18.3558 180.398 17.9858 179.92 17.6318 179.394C17.5498 179.276 17.5778 179.113 17.6968 179.03C17.7838 178.969 17.8998 178.971 17.9848 179.022C18.5678 179.386 19.0068 179.932 19.3618 180.513C19.6898 181.111 19.9418 181.762 19.9768 182.447C19.9838 182.579 19.8818 182.691 19.7498 182.698C19.6528 182.704 19.5648 182.647 19.5228 182.565Z" fill="#E9F0F3"/>
<path d="M102.67 10.7528C100.913 16.9938 101.178 26.6988 102.075 31.8718C102.439 33.9748 102.84 36.1508 104.008 37.9378C109.779 46.7628 118.722 44.9648 121.756 43.3478C124.137 42.0788 126.111 40.2178 127.374 37.8338C130.597 31.7508 132.323 24.8818 132.356 17.9978C132.356 17.9978 133.388 2.47483 117.176 2.09283C117.176 2.09283 105.604 0.331836 102.67 10.7528Z" fill="#F7AE8C"/>
<path d="M101.188 24.1395C101.637 23.8815 102.005 23.5035 102.341 23.1095C103.994 21.1785 105.031 18.8025 105.907 16.4165C106.748 14.1255 107.595 11.6955 108.178 9.32551C114.103 16.3665 123.044 20.5215 132.232 21.0155C134.047 21.1135 135.419 19.6125 136.211 17.9775C136.731 16.9035 137.015 15.6295 136.574 14.5205C136.028 13.1485 134.526 12.3975 133.076 12.1155C133.773 9.94651 133.365 7.45251 132.012 5.61851C130.659 3.78451 128.397 2.65852 126.118 2.68352C125.746 2.68752 125.362 2.71851 125.011 2.59351C124.735 2.49451 124.502 2.30551 124.264 2.13351C122.451 0.818513 120.164 0.352511 117.935 0.137511C114.915 -0.153489 111.806 -0.031487 108.946 0.980513C106.086 1.99251 103.489 3.97151 102.163 6.70051C102.163 6.70051 97.5817 14.3735 100.202 23.9255L101.188 24.1395Z" fill="#4E2E28"/>
<path d="M101.723 28.843C101.182 29.402 100.273 29.566 99.5686 29.232C99.0196 28.971 98.6326 28.463 98.3216 27.942C97.5016 26.567 97.0736 24.851 97.6426 23.357C97.7846 22.986 97.9947 22.625 98.3257 22.404C98.8757 22.036 99.6417 22.146 100.201 22.5C100.76 22.854 101.657 24.094 102.15 24.773L101.723 28.843Z" fill="#F7AE8C"/>
<path d="M99.0579 23.6999C99.7439 23.9859 100.319 24.4929 100.798 25.0599C101.236 25.6579 101.593 26.3388 101.704 27.0758C101.714 27.1438 101.667 27.2068 101.6 27.2168C101.54 27.2258 101.483 27.1898 101.464 27.1348C101.231 26.4738 100.933 25.8378 100.487 25.3028C100.081 24.7358 99.5379 24.2888 98.9519 23.9008C98.8989 23.8668 98.8849 23.7958 98.9189 23.7428C98.9499 23.6958 99.0089 23.6799 99.0579 23.6999Z" fill="#DA806C"/>
<path d="M100.869 25.5298C100.595 25.9068 100.341 26.2918 100.209 26.7318C100.029 27.1548 99.9768 27.6098 99.9418 28.0738C99.9378 28.1428 99.8778 28.1948 99.8088 28.1908C99.7518 28.1878 99.7058 28.1448 99.6948 28.0918C99.5908 27.5948 99.6848 27.0768 99.8378 26.5958C100.039 26.1328 100.305 25.6808 100.707 25.3718C100.757 25.3328 100.829 25.3418 100.868 25.3928C100.899 25.4328 100.897 25.4898 100.869 25.5298Z" fill="#DA806C"/>
<path d="M109.678 25.204C109.556 25.693 109.854 26.188 110.343 26.309C110.832 26.431 111.327 26.133 111.449 25.644C111.571 25.155 111.273 24.66 110.784 24.539C110.295 24.417 109.8 24.715 109.678 25.204Z" fill="#3C3C3B"/>
<path d="M113.351 23.1735C111.758 22.3595 109.994 22.1315 108.249 22.4635C108.117 22.4885 107.989 22.4015 107.964 22.2695C107.943 22.1585 108.002 22.0505 108.099 22.0035C108.979 21.5785 109.999 21.4925 110.967 21.6215C111.931 21.7785 112.879 22.1555 113.602 22.8075C113.694 22.8895 113.702 23.0305 113.62 23.1235C113.551 23.2005 113.439 23.2185 113.351 23.1735Z" fill="#3C3C3B"/>
<path d="M123.036 25.0452C123.926 24.6512 124.945 24.5882 125.909 24.7402C126.869 24.9192 127.811 25.3181 128.515 25.9971C128.613 26.0901 128.616 26.2441 128.523 26.3421C128.445 26.4241 128.322 26.4391 128.228 26.3871C126.673 25.5271 124.926 25.1941 123.159 25.4711C123.037 25.4901 122.923 25.4072 122.904 25.2852C122.888 25.1832 122.945 25.0852 123.036 25.0452Z" fill="#3C3C3B"/>
<path d="M118.647 25.6652C118.579 27.0372 118.436 28.4172 118.219 29.7892C118.2 29.9112 118.176 30.0432 118.107 30.1352C118.03 30.2372 117.919 30.2622 117.818 30.2712C117.374 30.3132 116.939 30.1822 116.58 29.8992C116.476 29.8172 116.375 29.7182 116.322 29.5702C116.218 29.2822 116.323 28.9072 116.427 28.5802C116.694 27.7392 116.961 26.8972 117.228 26.0552C117.353 25.6622 117.487 25.2512 117.728 24.9592C117.969 24.6672 118.351 24.5422 118.558 24.8002C118.614 25.1022 118.638 25.4202 118.629 25.7432" fill="#F47F61"/>
<path d="M117.442 32.3363C116.807 32.1853 116.193 31.9493 115.621 31.6363C115.169 31.3883 114.744 31.0933 114.295 30.8413C114.195 30.7853 114.079 30.7293 113.97 30.7653C113.919 30.7823 113.876 30.8173 113.838 30.8543C113.339 31.3313 113.389 32.1983 113.812 32.7433C114.236 33.2883 114.934 33.5533 115.619 33.6423C116.034 33.6963 116.468 33.6923 116.854 33.5313C117.24 33.3693 117.568 33.0253 117.62 32.6103C117.633 32.5063 117.592 32.3643 117.488 32.3713" fill="white"/>
<path d="M102.712 47.1049C103.103 47.1439 104.466 47.3369 104.466 47.3369C105.949 42.0279 106.133 40.7999 107.376 35.8359L120.883 38.8779C120.984 38.7419 117.786 49.0479 119.206 50.6429C119.448 50.9149 120.988 51.4739 121.875 51.6919C117.64 55.3369 111.681 53.8639 111.681 53.8639C104.006 53.1929 102.321 47.0649 102.712 47.1049Z" fill="#F7AE8C"/>
<path opacity="0.79" d="M106.208 40.6406C106.208 40.6406 110.188 45.3366 117.939 44.5236C117.939 44.5236 112.089 47.2486 105.668 42.8436L106.208 40.6406Z" fill="#F7AE8C"/>
<path d="M124.547 28.3337C124.534 28.8377 124.932 29.2567 125.436 29.2697C125.94 29.2827 126.359 28.8847 126.371 28.3807C126.384 27.8767 125.986 27.4577 125.482 27.4457C124.978 27.4317 124.56 27.8297 124.547 28.3337Z" fill="#3C3C3B"/>
<path opacity="0.49" d="M78.4751 58.5234L85.3491 76.4764L84.4951 76.9214L76.2051 60.6754L78.4751 58.5234Z" fill="#F7AE8C"/>
<path opacity="0.49" d="M138.054 78.0742L124.997 82.6482L124.655 85.5122L138.115 79.2432L138.054 78.0742Z" fill="#F7AE8C"/>
<path d="M204.433 221.244C206.302 209.803 198.542 199.014 187.101 197.145C175.661 195.276 164.871 203.036 163.003 214.476C161.134 225.917 168.894 236.706 180.334 238.575C191.775 240.444 202.564 232.684 204.433 221.244Z" fill="white"/>
<mask id="mask0_884_4279" style="mask-type:luminance" maskUnits="userSpaceOnUse" x="163" y="197" width="42" height="42">
<path d="M191.706 236.895C202.217 232.476 207.156 220.374 202.738 209.863C198.319 199.352 186.217 194.413 175.706 198.832C165.195 203.25 160.256 215.353 164.675 225.864C169.093 236.374 181.196 241.313 191.706 236.895Z" fill="white"/>
</mask>
<g mask="url(#mask0_884_4279)">
<path d="M172.971 203.192C172.968 203.192 172.964 203.192 172.96 203.192C172.77 203.186 172.621 203.028 172.627 202.838C172.63 202.729 172.717 200.158 173.394 198.858C173.482 198.689 173.689 198.623 173.858 198.712C174.027 198.8 174.092 199.008 174.004 199.176C173.399 200.337 173.315 202.834 173.315 202.86C173.309 203.045 173.156 203.192 172.971 203.192Z" fill="#363636"/>
</g>
<mask id="mask1_884_4279" style="mask-type:luminance" maskUnits="userSpaceOnUse" x="163" y="197" width="42" height="42">
<path d="M191.706 236.895C202.217 232.476 207.156 220.374 202.738 209.863C198.319 199.352 186.217 194.413 175.706 198.832C165.195 203.25 160.256 215.353 164.675 225.864C169.093 236.374 181.196 241.313 191.706 236.895Z" fill="white"/>
</mask>
<g mask="url(#mask1_884_4279)">
<path d="M164.175 210.44C164.054 210.44 163.937 210.377 163.874 210.264C163.781 210.098 163.841 209.889 164.007 209.796C165.161 209.152 166.837 208.861 166.908 208.849C167.096 208.817 167.273 208.943 167.305 209.13C167.337 209.317 167.211 209.495 167.024 209.527C167.008 209.53 165.393 209.811 164.343 210.397C164.289 210.427 164.231 210.44 164.175 210.44Z" fill="#363636"/>
</g>
<mask id="mask2_884_4279" style="mask-type:luminance" maskUnits="userSpaceOnUse" x="163" y="197" width="42" height="42">
<path d="M191.706 236.895C202.217 232.476 207.156 220.374 202.738 209.863C198.319 199.352 186.217 194.413 175.706 198.832C165.195 203.25 160.256 215.353 164.675 225.864C169.093 236.374 181.196 241.313 191.706 236.895Z" fill="white"/>
</mask>
<g mask="url(#mask2_884_4279)">
<path d="M179.626 205.1C179.514 205.1 179.404 205.045 179.338 204.945C179.234 204.786 179.278 204.573 179.437 204.469C179.565 204.385 182.638 202.406 188.795 201.62C188.985 201.597 189.156 201.73 189.18 201.918C189.204 202.106 189.071 202.279 188.882 202.303C182.881 203.069 179.844 205.025 179.814 205.044C179.756 205.082 179.691 205.1 179.626 205.1Z" fill="#363636"/>
</g>
<mask id="mask3_884_4279" style="mask-type:luminance" maskUnits="userSpaceOnUse" x="163" y="197" width="42" height="42">
<path d="M191.706 236.895C202.217 232.476 207.156 220.374 202.738 209.863C198.319 199.352 186.217 194.413 175.706 198.832C165.195 203.25 160.256 215.353 164.675 225.864C169.093 236.374 181.196 241.313 191.706 236.895Z" fill="white"/>
</mask>
<g mask="url(#mask3_884_4279)">
<path d="M195.081 217.423C195.058 217.423 195.034 217.421 195.01 217.416C194.824 217.377 194.705 217.195 194.744 217.009C196.002 211.013 195.783 207.999 195.781 207.969C195.766 207.78 195.907 207.614 196.097 207.599C196.291 207.584 196.452 207.725 196.468 207.914C196.478 208.039 196.7 211.041 195.418 217.15C195.383 217.312 195.24 217.423 195.081 217.423Z" fill="#363636"/>
</g>
<mask id="mask4_884_4279" style="mask-type:luminance" maskUnits="userSpaceOnUse" x="163" y="197" width="42" height="42">
<path d="M191.706 236.895C202.217 232.476 207.156 220.374 202.738 209.863C198.319 199.352 186.217 194.413 175.706 198.832C165.195 203.25 160.256 215.353 164.675 225.864C169.093 236.374 181.196 241.313 191.706 236.895Z" fill="white"/>
</mask>
<g mask="url(#mask4_884_4279)">
<path d="M186.049 220.206C185.968 220.206 185.887 220.178 185.822 220.12C180.468 215.412 177.576 213.023 177.548 213C177.401 212.879 177.381 212.662 177.501 212.516C177.622 212.369 177.839 212.349 177.985 212.469C178.014 212.493 180.912 214.887 186.276 219.604C186.419 219.729 186.433 219.947 186.307 220.089C186.239 220.167 186.144 220.206 186.049 220.206Z" fill="#363636"/>
</g>
<mask id="mask5_884_4279" style="mask-type:luminance" maskUnits="userSpaceOnUse" x="163" y="197" width="42" height="42">
<path d="M191.706 236.895C202.217 232.476 207.156 220.374 202.738 209.863C198.319 199.352 186.217 194.413 175.706 198.832C165.195 203.25 160.256 215.353 164.675 225.864C169.093 236.374 181.196 241.313 191.706 236.895Z" fill="white"/>
</mask>
<g mask="url(#mask5_884_4279)">
<path d="M168.93 225.028C168.75 225.028 168.599 224.889 168.587 224.707C168.282 220.104 169.675 215.731 169.734 215.547C169.793 215.366 169.987 215.268 170.167 215.325C170.348 215.384 170.447 215.577 170.389 215.758C170.375 215.802 168.977 220.193 169.273 224.661C169.285 224.851 169.142 225.015 168.953 225.027C168.945 225.028 168.937 225.028 168.93 225.028Z" fill="#363636"/>
</g>
<mask id="mask6_884_4279" style="mask-type:luminance" maskUnits="userSpaceOnUse" x="163" y="197" width="42" height="42">
<path d="M191.706 236.895C202.217 232.476 207.156 220.374 202.738 209.863C198.319 199.352 186.217 194.413 175.706 198.832C165.195 203.25 160.256 215.353 164.675 225.864C169.093 236.374 181.196 241.313 191.706 236.895Z" fill="white"/>
</mask>
<g mask="url(#mask6_884_4279)">
<path d="M175.763 231.839C175.609 231.839 175.469 231.735 175.43 231.579C175.383 231.395 175.495 231.208 175.679 231.161C175.733 231.147 181.126 229.771 184.787 228.049C184.959 227.967 185.164 228.042 185.245 228.214C185.326 228.386 185.252 228.591 185.08 228.672C181.358 230.422 175.902 231.815 175.848 231.828C175.819 231.835 175.791 231.839 175.763 231.839Z" fill="#363636"/>
</g>
<mask id="mask7_884_4279" style="mask-type:luminance" maskUnits="userSpaceOnUse" x="163" y="197" width="42" height="42">
<path d="M191.706 236.895C202.217 232.476 207.156 220.374 202.738 209.863C198.319 199.352 186.217 194.413 175.706 198.832C165.195 203.25 160.256 215.353 164.675 225.864C169.093 236.374 181.196 241.313 191.706 236.895Z" fill="white"/>
</mask>
<g mask="url(#mask7_884_4279)">
<path d="M192.099 237.481C192.058 237.481 192.017 237.474 191.976 237.458C191.799 237.39 191.71 237.191 191.778 237.014C192.752 234.467 192.687 231.91 192.686 231.885C192.68 231.695 192.83 231.536 193.02 231.531C193.023 231.531 193.027 231.531 193.031 231.531C193.216 231.531 193.369 231.678 193.375 231.864C193.378 231.974 193.447 234.58 192.421 237.26C192.368 237.397 192.237 237.481 192.099 237.481Z" fill="#363636"/>
</g>
<mask id="mask8_884_4279" style="mask-type:luminance" maskUnits="userSpaceOnUse" x="163" y="197" width="42" height="42">
<path d="M191.706 236.895C202.217 232.476 207.156 220.374 202.738 209.863C198.319 199.352 186.217 194.413 175.706 198.832C165.195 203.25 160.256 215.353 164.675 225.864C169.093 236.374 181.196 241.313 191.706 236.895Z" fill="white"/>
</mask>
<g mask="url(#mask8_884_4279)">
<path d="M184.807 239.116C184.786 239.116 184.764 239.114 184.743 239.11C180.475 238.303 176.154 235.736 175.973 235.627C175.81 235.529 175.757 235.318 175.855 235.155C175.953 234.992 176.164 234.939 176.327 235.037C176.371 235.063 180.727 237.651 184.872 238.434C185.059 238.469 185.181 238.649 185.146 238.836C185.113 239.001 184.969 239.116 184.807 239.116Z" fill="#363636"/>
</g>
<mask id="mask9_884_4279" style="mask-type:luminance" maskUnits="userSpaceOnUse" x="163" y="197" width="42" height="42">
<path d="M191.706 236.895C202.217 232.476 207.156 220.374 202.738 209.863C198.319 199.352 186.217 194.413 175.706 198.832C165.195 203.25 160.256 215.353 164.675 225.864C169.093 236.374 181.196 241.313 191.706 236.895Z" fill="white"/>
</mask>
<g mask="url(#mask9_884_4279)">
<path d="M198.971 224.818C198.839 224.818 198.764 224.813 198.748 224.812C198.559 224.797 198.417 224.632 198.432 224.442C198.447 224.253 198.614 224.111 198.801 224.126C198.821 224.126 200.81 224.253 203.866 222.837C204.04 222.757 204.243 222.832 204.323 223.004C204.403 223.176 204.328 223.381 204.156 223.461C201.483 224.699 199.596 224.818 198.971 224.818Z" fill="#363636"/>
</g>
<mask id="mask10_884_4279" style="mask-type:luminance" maskUnits="userSpaceOnUse" x="163" y="197" width="42" height="42">
<path d="M191.706 236.895C202.217 232.476 207.156 220.374 202.738 209.863C198.319 199.352 186.217 194.413 175.706 198.832C165.195 203.25 160.256 215.353 164.675 225.864C169.093 236.374 181.196 241.313 191.706 236.895Z" fill="white"/>
</mask>
<g mask="url(#mask10_884_4279)">
<path d="M204.474 216.003C204.322 216.003 204.183 215.901 204.142 215.747C202.852 210.881 199.617 207.849 199.585 207.819C199.445 207.69 199.437 207.472 199.566 207.333C199.695 207.193 199.913 207.185 200.052 207.314C200.191 207.442 203.467 210.514 204.808 215.571C204.857 215.755 204.747 215.943 204.563 215.992C204.533 215.999 204.503 216.003 204.474 216.003Z" fill="#363636"/>
</g>
<mask id="mask11_884_4279" style="mask-type:luminance" maskUnits="userSpaceOnUse" x="163" y="197" width="42" height="42">
<path d="M191.706 236.895C202.217 232.476 207.156 220.374 202.738 209.863C198.319 199.352 186.217 194.413 175.706 198.832C165.195 203.25 160.256 215.353 164.675 225.864C169.093 236.374 181.196 241.313 191.706 236.895Z" fill="white"/>
</mask>
<g mask="url(#mask11_884_4279)">
<path d="M196.128 208.021C197.358 207.975 199.91 207.656 199.91 207.656C200.001 206.562 200.092 205.287 200.092 205.287V205.286C197.44 201.843 193.727 199.263 189.442 198.031C188.967 200.389 188.519 202.006 188.519 202.006C193.076 204.194 196.128 208.021 196.128 208.021Z" fill="#363636"/>
<path d="M166.876 209.206C166.876 209.206 167.257 211.712 170.028 215.767C170.028 215.767 172.799 214.4 177.857 212.805C177.857 212.805 178.358 209.297 179.725 204.695C179.725 204.695 177.401 203.055 172.981 202.645C172.981 202.645 169.838 204.148 166.876 209.206Z" fill="#363636"/>
<path d="M195.124 216.867C195.124 216.867 190.624 218.581 185.803 219.652C185.803 219.652 185.214 225.491 184.678 228.49C184.678 228.49 188.374 231.704 193.034 232.079C193.034 232.079 197.266 228.704 198.926 224.472C198.928 224.474 198.499 220.938 195.124 216.867Z" fill="#363636"/>
<path d="M168.93 224.688C168.93 224.688 167.591 225.599 165.127 226.349L165.027 226.617C166.846 230.5 169.837 233.721 173.546 235.829C173.799 235.733 173.965 235.669 173.965 235.669C173.965 235.669 175.558 235.54 176.268 235.406C176.268 235.406 175.936 233.995 176.054 231.436C176.054 231.436 171.448 228.33 168.93 224.688Z" fill="#363636"/>
</g>
</svg>
