<svg width="231" height="253" viewBox="0 0 231 253" fill="none" xmlns="http://www.w3.org/2000/svg">
<path d="M115.365 252.177C179.079 252.177 230.73 244.537 230.73 235.114C230.73 225.69 179.079 218.051 115.365 218.051C51.6507 218.051 0 225.69 0 235.114C0 244.537 51.6507 252.177 115.365 252.177Z" fill="#FF894E"/>
<path d="M153.71 53.4326C152.627 52.0266 151.035 47.2996 150.407 45.6666C150.182 45.0816 149.986 44.4496 150.146 43.8466C150.305 43.2436 150.951 42.7136 151.589 42.8676C152.119 42.9956 152.42 43.5036 152.797 43.8776C153.174 44.2516 153.899 44.4776 154.217 44.0576C154.314 43.9286 154.346 43.7666 154.369 43.6106C154.665 41.6296 154.1 39.6176 153.296 37.7656C153.134 37.3936 152.969 36.9456 153.21 36.6126C153.641 36.0186 154.624 36.5556 155.062 37.1456C155.945 38.3336 156.523 39.7216 156.732 41.1586C156.117 39.6716 155.502 38.1846 154.888 36.6976C154.671 36.1736 154.451 35.6246 154.519 35.0656C154.587 34.5076 155.046 33.9476 155.642 33.9476C156.407 33.9476 156.831 34.7626 157.075 35.4466C157.516 36.6856 157.956 37.9256 158.397 39.1646C157.418 37.7466 156.865 36.0706 156.817 34.3796C156.802 33.8506 156.885 33.2366 157.36 32.9546C157.831 32.6756 158.486 32.8846 158.853 33.2796C159.219 33.6746 159.367 34.2036 159.503 34.7116C159.853 36.0146 160.203 37.3176 160.553 38.6216C160.063 37.1636 159.699 35.6686 159.466 34.1546C159.393 33.6816 159.357 33.1346 159.71 32.7926C160.07 32.4436 160.706 32.4796 161.134 32.7506C161.562 33.0216 161.824 33.4686 162.039 33.9106C163.675 37.2616 163.502 41.0656 162.561 44.7086C162.031 46.7596 162.112 48.9846 162.1 51.1026L153.71 53.4326Z" fill="#F7C5B4"/>
<path d="M173.488 106.363C174.555 108.163 174.889 110.288 175.273 112.345C176.396 118.363 178.435 124.749 183.448 128.263C184.18 128.776 184.987 129.241 185.473 129.991C185.959 130.741 185.976 131.895 185.238 132.399C184.138 133.149 182.487 131.908 181.358 132.614C181.055 132.804 180.835 133.116 180.513 133.271C179.891 133.571 179.161 133.185 178.622 132.754C174.967 129.834 173.978 124.798 172.946 120.234C172.004 116.067 170.828 111.954 169.427 107.918C168.993 106.668 167.425 104.273 169.3 103.613C170.877 103.058 172.804 105.209 173.488 106.363Z" fill="#FF6F2F"/>
<path d="M116.205 58.6435C122.524 59.9215 130.956 60.7805 137.38 60.2315C149.83 59.1665 161.047 52.4975 171.354 45.4335C173.272 44.1195 175.201 42.7715 177.378 41.9545C182.353 40.0875 189.689 40.8335 193.418 44.6185C193.418 44.6185 170.373 75.8345 131.408 72.2805L116.205 58.6435Z" fill="#275824"/>
<path d="M46.6041 25.5759C45.5761 24.6039 43.1371 22.4989 42.6291 21.1779C42.0811 19.7529 42.2141 18.0639 41.3391 16.8129C40.5721 15.7149 39.1831 15.2129 37.8491 15.0909C36.5151 14.9689 35.1721 15.1619 33.8331 15.1319C31.7681 15.0859 29.7171 14.5009 27.9391 13.4509C26.9871 12.8879 26.0991 12.1899 25.0541 11.8279C23.7171 11.3659 22.2571 11.4999 20.8491 11.6409C19.5641 11.7689 18.2801 11.8969 16.9951 12.0249C16.4001 12.0839 15.7761 12.1539 15.2881 12.4999C14.7261 12.8979 14.4181 13.6169 13.7941 13.9099C13.3381 14.1239 12.7301 14.1059 12.4411 14.5189C12.2241 14.8299 12.2921 15.2519 12.1811 15.6139C11.8101 16.8259 9.8161 16.7249 9.2541 17.8609C8.7001 18.9819 9.96608 20.1189 11.0791 20.6879C20.6801 25.6019 33.4211 27.1579 41.7011 34.0709L46.6041 25.5759Z" fill="#F7C5B4"/>
<path d="M137.618 226.398C134.214 227.881 125.115 233.602 121.71 235.085C120.995 235.397 120.268 235.712 119.495 235.817C118.688 235.927 117.718 235.871 117.242 236.532C116.75 237.217 117.221 238.248 117.966 238.644C118.711 239.04 119.604 238.986 120.445 238.928C126.14 238.538 131.858 238.475 137.56 238.739C140.865 238.892 144.178 239.154 147.477 238.903C148.739 238.807 150.172 238.524 150.81 237.431C151.595 236.085 150.707 234.413 149.84 233.118C148.358 230.903 146.876 228.688 145.394 226.473L137.618 226.398Z" fill="#F7C5B4"/>
<path opacity="0.27" d="M39.3579 37.4304C64.0269 60.3404 93.3309 79.1164 127.796 105.185C125.329 99.4874 118.817 96.3064 114.002 92.3864C109.738 88.9144 106.47 84.3784 102.447 80.6294C95.5569 74.2084 86.7159 70.3214 79.1599 64.6994C76.1159 62.4354 73.2899 59.8954 70.4299 57.4034C66.5899 54.0574 62.6819 50.7904 58.7729 47.5234C53.0399 42.7314 46.8839 37.5264 41.1509 32.7344L40.1089 35.3124L39.3579 37.4304Z" fill="#588BA9"/>
<path opacity="0.27" d="M142.673 228.435C144.559 228.312 146.42 228.09 148.222 227.754C154.02 206.274 157.454 184.168 158.044 161.927C158.127 158.812 158.33 155.701 158.651 152.602C156.899 157.465 155.265 162.94 154.558 168.06C154.106 171.331 154.091 174.652 153.622 177.921C153.111 181.478 152.068 184.936 151.358 188.458C150.135 194.525 149.905 200.75 148.884 206.854C147.898 212.747 146.183 218.489 144.471 224.213C144.036 225.665 143.107 226.982 142.673 228.435Z" fill="#588BA9"/>
<path d="M220.754 65.6595C220.724 65.4645 220.685 65.2715 220.65 65.0775C220.572 64.6425 220.485 64.2105 220.382 63.7815C220.331 63.5665 220.278 63.3555 220.22 63.1425C220.106 62.7175 219.978 62.2995 219.84 61.8855C219.778 61.6995 219.721 61.5125 219.655 61.3285C219.231 60.1585 218.71 59.0435 218.097 58.0085C218.001 57.8475 217.898 57.6955 217.798 57.5395C217.573 57.1865 217.339 56.8425 217.092 56.5125C216.968 56.3475 216.842 56.1865 216.713 56.0275C216.454 55.7095 216.182 55.4085 215.902 55.1175C215.776 54.9875 215.655 54.8515 215.525 54.7275C215.109 54.3295 214.677 53.9525 214.217 53.6185L199.875 48.5055C197.006 46.0635 189.866 41.3795 186.102 41.1945C182.848 41.0345 179.767 42.7275 177.28 44.8335C174.793 46.9385 172.707 49.4885 170.188 51.5545C163.272 57.2275 153.907 58.6905 145.845 62.5675C144.221 63.3485 142.405 65.2495 143.567 66.6265C130.5 63.6135 117.465 59.3085 104.825 54.8295C97.3013 52.1635 49.6463 22.6445 49.6463 22.6445C43.3643 24.2785 39.3613 37.4295 39.3613 37.4295C64.0303 60.3395 93.3333 79.1155 127.799 105.186C127.712 114.323 126.662 150.854 127.094 160.872C128.052 183.131 128.85 205.646 129.808 227.905C135.766 228.731 142.312 228.862 148.225 227.757C154.024 206.277 157.457 184.171 158.047 161.93C158.378 149.471 160.634 137.065 164.711 125.288C167.096 118.4 170.595 110.705 169.019 103.587C180.809 102.482 192.361 98.8915 202.702 93.1205C209.638 89.2485 216.288 84.0915 219.536 76.8415C220.983 73.6055 221.353 69.5615 220.754 65.6595Z" fill="#277424"/>
<path d="M215.31 37.4309L213.393 53.0779L214.215 53.6159C213.182 54.4479 211.771 54.5789 210.449 54.6859C201.691 55.3949 192.602 56.6399 185.3 61.5279C187.683 55.9679 191.348 49.7749 195.314 45.2089C196.848 46.1119 197.538 46.6829 198.817 47.6529L201.347 36.0469L215.31 37.4309Z" fill="#F7C5B4"/>
<path d="M228.004 19.681C227.727 26.175 224.441 35.337 221.97 39.985C220.966 41.874 219.904 43.822 218.233 45.159C209.978 51.761 202.022 47.254 199.638 44.765C197.767 42.812 196.469 40.422 196.011 37.757C194.842 30.955 195.346 23.872 197.465 17.305C197.465 17.305 201.334 2.19596 216.895 6.89996C216.895 6.89996 228.467 8.83795 228.004 19.681Z" fill="#F7C5B4"/>
<path d="M199.483 44.6016C199.633 45.9676 200.587 47.0886 201.349 47.7046C202.032 48.2566 202.843 48.6416 203.697 48.8496C207.309 49.7316 210.35 48.5376 210.35 48.5376C205.335 49.0076 201.236 46.4336 199.638 44.7656" fill="#222221"/>
<path d="M201.307 28.3594C201.149 29.0694 200.571 29.5444 200.017 29.4214C199.462 29.2984 199.14 28.6224 199.298 27.9134C199.456 27.2034 200.033 26.7284 200.588 26.8514C201.143 26.9744 201.465 27.6494 201.307 28.3594Z" fill="#222221"/>
<path d="M214.161 31.3946C214.003 32.1046 213.425 32.5796 212.871 32.4566C212.316 32.3336 211.994 31.6576 212.152 30.9486C212.31 30.2386 212.887 29.7636 213.442 29.8866C213.997 30.0096 214.318 30.6846 214.161 31.3946Z" fill="#222221"/>
<path d="M203.221 26.144C202.547 25.688 201.833 25.301 201.074 25.011C200.323 24.699 199.541 24.491 198.744 24.348L198.733 24.346C198.593 24.321 198.5 24.187 198.525 24.047C198.545 23.935 198.635 23.853 198.742 23.838C199.654 23.708 200.552 23.936 201.38 24.255C202.192 24.613 202.987 25.085 203.547 25.81C203.627 25.913 203.607 26.061 203.505 26.14C203.422 26.204 203.311 26.204 203.229 26.149L203.221 26.144Z" fill="#222221"/>
<path d="M212.215 26.7715C213.014 26.3235 213.93 26.1995 214.817 26.1875C215.703 26.2175 216.619 26.3595 217.407 26.8345C217.529 26.9085 217.568 27.0665 217.494 27.1885C217.435 27.2855 217.322 27.3305 217.217 27.3065L217.206 27.3045C216.417 27.1245 215.616 27.0105 214.803 27.0035C213.99 26.9735 213.182 27.0505 212.384 27.2065L212.375 27.2085C212.247 27.2335 212.123 27.1505 212.098 27.0225C212.079 26.9195 212.129 26.8195 212.215 26.7715Z" fill="#222221"/>
<path d="M230.711 20.507C230.682 21.132 230.535 21.748 230.429 22.364C230.091 24.329 229.75 26.308 229.038 28.17C228.326 30.032 227.211 31.791 225.589 32.95C224.127 28.383 224.208 23.24 224.872 18.381C221.903 20.549 217.823 21.75 214.185 21.221C210.547 20.692 207.145 18.689 204.916 15.766C205.596 15.869 206.276 15.973 206.956 16.077C203.568 13.378 201.132 9.508 200.164 5.286C201.271 6.146 202.58 6.74401 203.955 7.01701C203.774 4.68301 203.682 2.341 203.681 0C204.346 2.454 206.42 4.472 208.892 5.069C208.806 3.995 208.719 2.921 208.632 1.847C209.041 3.241 210.583 4 212.027 4.165C213.471 4.33 214.939 4.073 216.381 4.247C218.108 4.456 231.301 7.684 230.711 20.507Z" fill="#222221"/>
<path d="M202.484 10.5754C199.528 14.5514 197.945 18.0064 195.859 24.2014C195.291 18.2484 197.212 11.7204 201.258 7.31641L202.484 10.5754Z" fill="#222221"/>
<path d="M223.916 35.0777C224.21 35.6837 224.914 36.0637 225.582 35.9787C226.104 35.9127 226.56 35.5987 226.956 35.2537C228.001 34.3447 228.817 33.0487 228.751 31.6657C228.735 31.3227 228.659 30.9687 228.447 30.6977C228.094 30.2467 227.435 30.1307 226.879 30.2707C226.324 30.4107 225.252 31.1887 224.663 31.6147L223.916 35.0777Z" fill="#F7C5B4"/>
<path d="M227.525 31.7385C226.335 32.0175 225.276 32.7345 224.571 33.7295C224.544 33.7675 224.491 33.7765 224.453 33.7505C224.417 33.7255 224.407 33.6775 224.428 33.6405C225.043 32.5205 226.233 31.7315 227.498 31.5865C227.541 31.5815 227.579 31.6125 227.583 31.6545C227.589 31.6935 227.563 31.7295 227.525 31.7385Z" fill="#DA806C"/>
<path d="M225.669 32.5025C226.117 33.2405 226.158 34.2225 225.765 34.9945C225.744 35.0365 225.693 35.0525 225.651 35.0315C225.614 35.0125 225.597 34.9685 225.609 34.9305C225.849 34.1585 225.825 33.3275 225.531 32.5705C225.515 32.5305 225.535 32.4855 225.575 32.4695C225.61 32.4565 225.65 32.4715 225.669 32.5025Z" fill="#DA806C"/>
<path d="M207.493 37.6031C206.609 37.6301 204.549 38.0041 204.144 36.8461C203.865 36.0471 204.603 35.7491 205.273 35.5671C206.09 35.3451 207.561 35.2181 208.289 35.7461C209.429 36.5721 208.634 37.5681 207.493 37.6031Z" fill="white"/>
<path d="M207.419 29.9364C207.354 31.2484 207.217 32.5684 207.01 33.8804C206.991 33.9974 206.969 34.1234 206.903 34.2114C206.83 34.3094 206.723 34.3324 206.627 34.3414C206.202 34.3814 205.787 34.2564 205.443 33.9854C205.343 33.9064 205.247 33.8114 205.196 33.6714C205.097 33.3964 205.197 33.0374 205.296 32.7244C205.551 31.9194 205.807 31.1154 206.062 30.3104C206.181 29.9344 206.309 29.5424 206.54 29.2624C206.77 28.9824 207.136 28.8644 207.333 29.1104C207.387 29.3994 207.409 29.7034 207.401 30.0124" fill="#F47F61"/>
<path opacity="0.46" d="M161.681 103.715C157.871 100.244 152.957 98.1066 149.359 94.4166C146.129 91.1056 144.164 86.7276 143.062 82.2356C141.959 77.7436 140.821 74.3816 140.528 69.7656C140.528 69.7656 137.696 80.9026 142.17 91.0826C146.643 101.264 161.681 103.715 161.681 103.715Z" fill="#588BA9"/>
<path d="M206.286 82.7248C197.958 86.6918 189.092 89.5278 180.007 91.1308C175.76 91.8798 171.42 92.3608 167.138 91.8558C165.109 91.6168 163.049 91.1318 161.377 89.9578C158.614 88.0188 157.389 84.5908 156.392 81.3658C153.503 72.0238 151.18 62.5068 149.439 52.8848C155.139 52.0168 160.425 50.5928 165.98 49.0508C169.417 58.1838 170.675 62.2898 174.112 71.4228C174.112 71.4228 194.932 65.5278 201.332 63.8568" fill="#277424"/>
<path d="M206.424 83.012C199.935 86.144 193.114 88.601 186.106 90.308C182.597 91.147 179.057 91.84 175.458 92.256C171.859 92.638 168.186 92.72 164.573 91.882C162.778 91.451 160.997 90.549 159.705 89.148C158.396 87.768 157.551 86.071 156.884 84.375C156.22 82.665 155.729 80.935 155.2 79.216C154.679 77.494 154.185 75.763 153.702 74.029C151.787 67.09 150.156 60.069 148.9 52.98C148.845 52.683 149.042 52.398 149.338 52.344L149.357 52.341C154.924 51.511 160.388 50.058 165.842 48.55C166.101 48.478 166.37 48.62 166.464 48.866C169.269 56.302 171.758 63.839 174.555 71.253L173.982 70.964L201.243 63.517C201.429 63.466 201.621 63.576 201.672 63.762C201.722 63.947 201.614 64.138 201.43 64.19L201.419 64.193L174.24 71.877C174.002 71.944 173.754 71.814 173.667 71.588C170.835 64.163 168.318 56.635 165.495 49.231L166.117 49.547C160.665 51.075 155.162 52.562 149.52 53.424L149.977 52.785C151.278 59.832 152.834 66.834 154.721 73.749C155.194 75.477 155.678 77.203 156.19 78.92C156.709 80.635 157.195 82.366 157.826 84.008C158.46 85.644 159.253 87.228 160.424 88.469C161.578 89.724 163.125 90.526 164.811 90.944C168.208 91.751 171.834 91.704 175.356 91.338C178.895 90.944 182.421 90.271 185.899 89.453C192.862 87.823 199.664 85.475 206.147 82.433C206.307 82.358 206.497 82.426 206.572 82.586C206.649 82.747 206.581 82.936 206.424 83.012Z" fill="#275824"/>
<path d="M173.816 69.6921C174.37 70.8461 174.742 72.0771 175.028 73.3241C175.285 74.5771 175.461 75.8531 175.425 77.1331C175.421 77.2621 175.314 77.3641 175.185 77.3601C175.072 77.3571 174.979 77.2731 174.961 77.1651C174.75 75.9271 174.571 74.6961 174.301 73.4791C174.06 72.2561 173.731 71.0561 173.416 69.8381C173.386 69.7231 173.455 69.6071 173.569 69.5771C173.67 69.5511 173.773 69.6021 173.816 69.6921Z" fill="#275824"/>
<path d="M172.293 81.2393C172.717 79.6073 173.045 77.9544 173.26 76.2894C173.496 74.6264 173.581 72.9473 173.595 71.2693C173.594 71.0673 173.758 70.9023 173.961 70.9023C174.074 70.9023 174.179 70.9574 174.246 71.0374C175.719 72.8454 177.448 74.4943 178.897 76.4063C178.975 76.5083 178.954 76.6543 178.852 76.7323C178.754 76.8063 178.616 76.7893 178.536 76.6993C176.978 74.9423 175.21 73.3594 173.677 71.4984L174.327 71.2663C174.353 72.9813 174.198 74.6953 173.945 76.3893C173.67 78.0803 173.259 79.7483 172.701 81.3633C172.662 81.4743 172.541 81.5333 172.43 81.4953C172.324 81.4583 172.265 81.3463 172.293 81.2393Z" fill="#275824"/>
<path opacity="0.27" d="M169.016 103.584C180.806 102.479 192.358 98.8891 202.699 93.1181C209.636 89.2471 216.286 84.0891 219.533 76.8391C221.258 72.9881 221.464 67.9911 220.314 63.4531C219.467 73.4571 218.081 77.0761 213.861 82.3401C210.816 86.1391 205.871 88.8481 201.615 91.2141C191.393 96.8971 180.299 100.503 169.016 103.584Z" fill="#588BA9"/>
<path d="M210.603 54.3059C209.337 54.3179 208.063 54.3219 206.793 54.3899C204.25 54.4949 201.704 54.7379 199.168 55.1549C196.634 55.5729 194.112 56.1879 191.673 57.0939C190.279 57.5889 188.926 58.2049 187.613 58.9039C188.465 57.0419 189.379 55.2029 190.354 53.3929C191.851 50.5929 193.498 47.8719 195.315 45.2109C192.939 47.3969 190.903 49.9429 189.068 52.6119C187.3 55.2269 185.75 57.9909 184.425 60.8759C183.191 62.0159 178.514 64.2779 176.163 65.4139C174.823 66.0609 173.665 66.6209 172.973 67.0079C172.434 67.3099 172.24 67.9929 172.542 68.5329C172.748 68.8999 173.128 69.1069 173.521 69.1069C173.707 69.1069 173.894 69.0609 174.067 68.9639C174.699 68.6099 175.83 68.0639 177.139 67.4319C181.613 65.2689 184.956 63.5879 186.228 62.2229C188.175 60.9849 190.281 60.0109 192.442 59.1619C194.738 58.2959 197.119 57.6129 199.545 57.0609C201.97 56.5009 204.438 56.0659 206.923 55.6459L210.664 55.0409C211.901 54.8349 213.296 54.5469 214.215 53.6189C213.117 54.2989 211.847 54.2989 210.603 54.3059Z" fill="#275824"/>
<path d="M169.016 103.585C169.016 103.585 155.994 95.713 152.396 92.024C149.166 88.713 147.201 84.335 146.099 79.843C144.996 75.351 143.858 71.989 143.565 67.373V66.626L139.41 65.625C139.41 65.625 139.987 84.146 147.453 93.525C154.919 102.905 169.383 106.319 169.383 106.319C169.383 106.319 169.279 104.735 169.016 103.585Z" fill="#FF9A67"/>
<path d="M172.022 114.743C171.566 121.711 173.123 128.8 176.456 134.936C177.468 136.799 178.682 138.769 178.397 140.87C175.549 141.319 172.161 141.586 170.26 139.419C168.245 137.121 169.175 133.621 169.399 130.573C169.679 126.754 168.646 122.979 168.047 119.196C167.662 116.764 165.545 105.951 167.933 104.609C172.665 101.949 172.124 113.169 172.022 114.743Z" fill="#FF9A67"/>
<path d="M156.784 34.7773C157.146 35.4923 157.388 36.2573 157.628 37.0213C157.806 37.8013 157.981 38.5893 157.985 39.3923C157.827 38.6083 157.692 37.8273 157.454 37.0683C157.278 36.2933 157.001 35.5473 156.784 34.7773Z" fill="#DA806C"/>
<path d="M159.439 34.418C159.737 35.064 159.913 35.753 160.091 36.439C160.205 37.138 160.324 37.847 160.254 38.557C160.17 37.854 160.091 37.159 159.916 36.476C159.802 35.782 159.591 35.111 159.439 34.418Z" fill="#DA806C"/>
<path d="M155.096 37.2422C155.504 37.8122 155.779 38.4622 156.046 39.1082C156.253 39.7762 156.456 40.4512 156.505 41.1512C156.304 40.4822 156.142 39.8102 155.877 39.1692C155.672 38.5062 155.368 37.8852 155.096 37.2422Z" fill="#DA806C"/>
</svg>
