<svg width="277" height="203" viewBox="0 0 277 203" fill="none" xmlns="http://www.w3.org/2000/svg">
<g clip-path="url(#clip0_887_9826)">
<path d="M138.503 203C214.996 203 277.006 188.917 277.006 171.544C277.006 154.171 214.996 140.087 138.503 140.087C62.01 140.087 0 154.171 0 171.544C0 188.917 62.01 203 138.503 203Z" fill="url(#paint0_radial_887_9826)"/>
<path d="M229.552 168.779C239.009 152.824 244.436 134.231 244.436 114.366C244.436 55.1369 196.198 7.12109 136.694 7.12109C77.19 7.12109 28.958 55.1432 28.958 114.373C28.958 134.238 34.3916 152.831 43.8419 168.786H229.552V168.779Z" fill="#F5F4ED"/>
<path d="M128.983 168.779C161.717 168.779 188.253 142.366 188.253 109.783C188.253 77.1998 161.717 50.7861 128.983 50.7861C96.2494 50.7861 69.7134 77.1998 69.7134 109.783C69.7134 142.366 96.2494 168.779 128.983 168.779Z" fill="url(#paint1_linear_887_9826)"/>
<path d="M84.4771 148.751C94.3195 107.705 131.406 77.1865 175.653 77.1865C176.576 77.1865 177.5 77.1991 178.417 77.2243" stroke="#131313" stroke-width="1.3307" stroke-miterlimit="10"/>
<path d="M177.626 143.5C134.461 138.651 100.177 104.626 95.1543 61.7102" stroke="#131313" stroke-width="1.3307" stroke-miterlimit="10"/>
<path d="M138.788 167.974C137.137 157.049 129.679 160.412 121.525 149.387C115.541 141.302 117.724 128.735 125.896 120.436C125.896 120.436 136.397 109.103 157.707 109.783C170.624 110.192 176.355 115.777 188.171 112.962" stroke="#131313" stroke-width="1.3307" stroke-miterlimit="10"/>
<path d="M72.9268 90.579C72.9268 90.579 83.4334 93.9916 99.8987 82.0097C99.8987 82.0097 109.305 75.0523 113.448 63.6685C115.523 57.964 117.344 54.5829 119.128 51.6047" stroke="#131313" stroke-width="1.3307" stroke-miterlimit="10"/>
<path d="M80.7006 180.05C92.6448 180.05 102.328 170.412 102.328 158.523C102.328 146.634 92.6448 136.996 80.7006 136.996C68.7564 136.996 59.0737 146.634 59.0737 158.523C59.0737 170.412 68.7564 180.05 80.7006 180.05Z" fill="url(#paint2_linear_887_9826)"/>
<path d="M84.2743 179.754C83.6734 175.768 80.9534 176.996 77.9741 172.973C75.7918 170.026 76.5889 165.436 79.5682 162.408C79.5682 162.408 83.4014 158.271 91.1755 158.523C95.888 158.674 97.9754 160.708 102.289 159.681" stroke="white" stroke-width="2.6614" stroke-miterlimit="10"/>
<path d="M60.2505 151.515C60.2505 151.515 64.0837 152.762 70.093 148.386C70.093 148.386 73.5214 145.848 75.0332 141.693C75.7922 139.609 76.4564 138.381 77.1079 137.292" stroke="white" stroke-width="2.6614" stroke-miterlimit="10"/>
<path d="M207.843 139.722C208.298 139.237 208.735 138.733 209.159 138.217C209.209 138.154 209.254 138.091 209.304 138.028C209.665 137.575 210.013 137.115 210.348 136.637C210.411 136.548 210.474 136.46 210.538 136.366C211.297 135.264 211.986 134.099 212.606 132.871C212.619 132.846 212.631 132.815 212.644 132.789C212.935 132.21 213.207 131.618 213.46 131.014C213.492 130.932 213.53 130.85 213.561 130.768C216.37 123.993 217.059 115.783 215.022 107.138C210.152 86.4863 191.58 71.2239 173.546 73.0625C155.512 74.8947 144.841 93.1289 149.712 113.787C151.356 120.77 154.576 127.135 158.808 132.437C159.813 133.696 160.876 134.886 161.989 136.019C162.059 136.089 162.129 136.164 162.204 136.234C162.723 136.756 163.255 137.266 163.799 137.757C163.824 137.782 163.849 137.808 163.874 137.827C165.026 138.872 166.221 139.841 167.455 140.742C167.556 140.817 167.657 140.887 167.758 140.962C168.296 141.346 168.84 141.724 169.397 142.083C169.472 142.133 169.548 142.184 169.624 142.234C170.263 142.643 170.915 143.034 171.573 143.405C172.192 143.751 172.819 144.079 173.451 144.394C173.597 144.463 173.736 144.532 173.881 144.601C174.406 144.853 174.944 145.092 175.475 145.319C175.608 145.376 175.741 145.432 175.868 145.489C176.532 145.76 177.196 146.012 177.873 146.245C177.898 146.251 177.93 146.264 177.955 146.27C178.581 146.478 179.207 146.667 179.84 146.843C180.023 146.893 180.201 146.937 180.384 146.988C180.89 147.12 181.402 147.24 181.915 147.34C182.092 147.378 182.269 147.416 182.446 147.454C182.996 147.561 183.553 147.649 184.11 147.724L190.372 178.243C190.732 179.993 192.491 181.29 194.256 181.114L203.599 180.163C205.363 179.98 208.128 179.691 207.805 175.661L197.887 146.327C198.38 146.144 198.867 145.949 199.348 145.735C199.5 145.665 199.651 145.596 199.803 145.527C200.24 145.325 200.676 145.111 201.1 144.885C201.252 144.803 201.404 144.727 201.555 144.639C202.08 144.35 202.586 144.041 203.086 143.72C203.105 143.707 203.13 143.695 203.156 143.676C203.693 143.323 204.212 142.952 204.718 142.561C204.819 142.486 204.921 142.404 205.015 142.322C205.42 142.001 205.819 141.667 206.205 141.321C206.312 141.227 206.413 141.132 206.521 141.038C206.964 140.616 207.413 140.181 207.843 139.722Z" fill="url(#paint3_linear_887_9826)"/>
<path d="M216.749 105.539C221.62 126.191 210.949 144.425 192.915 146.264C174.881 148.096 156.309 132.84 151.439 112.188C146.568 91.5359 157.239 73.3017 175.273 71.4632C193.307 69.6309 211.872 84.8869 216.749 105.539Z" fill="url(#paint4_linear_887_9826)"/>
<path d="M160.535 130.838C168.815 141.208 180.979 147.479 192.915 146.264C204.851 145.048 213.555 136.649 216.667 125.121L160.535 130.838Z" fill="url(#paint5_linear_887_9826)"/>
<path d="M205.319 178.557L195.976 179.508C194.212 179.691 192.453 178.387 192.093 176.637L183.952 136.958L197.172 135.61L207.698 175.05C208.159 176.788 207.084 178.375 205.319 178.557Z" fill="url(#paint6_linear_887_9826)"/>
<path d="M119.178 179.238L136.523 182.361C136.011 185.194 133.284 187.076 130.438 186.566L113.093 183.444C113.606 180.604 116.332 178.721 119.178 179.238Z" fill="#FDFDFD"/>
<path d="M132.304 176.297L114.959 173.174C114.447 176.008 116.338 178.721 119.185 179.231L136.529 182.354C137.042 179.521 135.15 176.814 132.304 176.297Z" fill="#FDFDFD"/>
<path d="M151.571 185.068L118.634 179.137" stroke="white" stroke-width="2.6421" stroke-miterlimit="10" stroke-linecap="round"/>
<path d="M117.913 185.691L135.479 187.114C135.245 189.985 132.715 192.126 129.831 191.887L112.265 190.464C112.499 187.599 115.029 185.458 117.913 185.691Z" fill="#FDFDFD"/>
<path d="M130.684 181.492L113.112 180.075C112.878 182.946 115.029 185.465 117.907 185.698L135.473 187.121C135.713 184.243 133.562 181.725 130.684 181.492Z" fill="#FDFDFD"/>
<path d="M150.723 188.348L117.363 185.647" stroke="white" stroke-width="2.6421" stroke-miterlimit="10" stroke-linecap="round"/>
<path d="M122.328 167.092L139.021 172.727C139.951 170.001 138.484 167.041 135.745 166.116L119.052 160.481C118.122 163.207 119.589 166.166 122.328 167.092Z" fill="#FDFDFD"/>
<path d="M132.38 175.995L115.687 170.36C116.616 167.633 119.589 166.173 122.328 167.098L139.021 172.733C138.098 175.453 135.118 176.92 132.38 175.995Z" fill="#FDFDFD"/>
<path d="M153.507 177.619L121.81 166.916" stroke="white" stroke-width="2.6421" stroke-miterlimit="10" stroke-linecap="round"/>
<path d="M124.365 160.833L140.426 168.062C141.621 165.436 140.445 162.351 137.813 161.161L121.753 153.933C120.557 156.558 121.728 159.65 124.365 160.833Z" fill="#FDFDFD"/>
<path d="M133.493 170.668L117.433 163.44C118.628 160.814 121.728 159.65 124.365 160.84L140.426 168.062C139.23 170.687 136.131 171.852 133.493 170.668Z" fill="#FDFDFD"/>
<path d="M154.361 174.339L123.866 160.607" stroke="white" stroke-width="2.6421" stroke-miterlimit="10" stroke-linecap="round"/>
<path d="M120.671 173.143L137.737 177.531C137.016 180.321 134.157 181.995 131.355 181.278L114.289 176.889C115.01 174.1 117.869 172.419 120.671 173.143Z" fill="#FDFDFD"/>
<path d="M133.973 171.178L116.907 166.79C116.186 169.579 117.869 172.425 120.671 173.143L137.737 177.531C138.458 174.742 136.775 171.902 133.973 171.178Z" fill="#FDFDFD"/>
<path d="M152.539 181.341L120.133 173.004" stroke="white" stroke-width="2.6421" stroke-miterlimit="10" stroke-linecap="round"/>
<path d="M167.24 185.125C168.397 180.661 165.702 176.108 161.218 174.956L157.018 191.119C161.502 192.271 166.076 189.589 167.24 185.125Z" fill="#FDFDFD"/>
<path d="M153.912 173.073L161.218 174.95L157.017 191.119L149.711 189.236L153.912 173.073Z" fill="url(#paint7_linear_887_9826)"/>
<path d="M39.6608 50.0117L37.2634 58.2788L28.958 60.6651L37.2634 63.0451L39.6608 71.3122L42.0518 63.0451L50.3635 60.6651L42.0518 58.2788L39.6608 50.0117Z" fill="url(#paint8_linear_887_9826)"/>
<path d="M164.147 0L161.756 8.27338L153.444 10.6534L161.756 13.0334L164.147 21.3068L166.538 13.0334L174.849 10.6534L166.538 8.27338L164.147 0Z" fill="url(#paint9_linear_887_9826)"/>
<path d="M246.834 102.895L244.436 94.6274L242.045 102.895L233.733 105.275L242.045 107.661L244.436 115.928L246.834 107.661L255.139 105.275L246.834 102.895Z" fill="url(#paint10_linear_887_9826)"/>
<path d="M101.309 25.519L99.9301 30.2728L95.1543 31.6391L99.9301 33.0117L101.309 37.7654L102.682 33.0117L107.457 31.6391L102.682 30.2728L101.309 25.519Z" fill="url(#paint11_linear_887_9826)"/>
<path d="M43.0956 117.212L41.7167 121.966L36.9409 123.339L41.7167 124.705L43.0956 129.459L44.4683 124.705L49.244 123.339L44.4683 121.966L43.0956 117.212Z" fill="url(#paint12_linear_887_9826)"/>
<path d="M202.03 50.7861L200.651 55.5399L195.875 56.9062L200.651 58.2788L202.03 63.0325L203.403 58.2788L208.179 56.9062L203.403 55.5399L202.03 50.7861Z" fill="url(#paint13_linear_887_9826)"/>
</g>
<defs>
<radialGradient id="paint0_radial_887_9826" cx="0" cy="0" r="1" gradientUnits="userSpaceOnUse" gradientTransform="translate(138.501 171.541) scale(133.191 29.3925)">
<stop stop-color="#C8BE98"/>
<stop offset="0.2558" stop-color="#CAC19C" stop-opacity="0.7442"/>
<stop offset="0.5307" stop-color="#D1C9A9" stop-opacity="0.4693"/>
<stop offset="0.8136" stop-color="#DCD6BF" stop-opacity="0.1864"/>
<stop offset="1" stop-color="#E5E2D1" stop-opacity="0"/>
</radialGradient>
<linearGradient id="paint1_linear_887_9826" x1="112.336" y1="33.0432" x2="138.569" y2="155.085" gradientUnits="userSpaceOnUse">
<stop stop-color="#F5B8A5"/>
<stop offset="0.4902" stop-color="#EF8969"/>
<stop offset="1" stop-color="#DA5D2E"/>
</linearGradient>
<linearGradient id="paint2_linear_887_9826" x1="78.7121" y1="142.491" x2="82.413" y2="172.59" gradientUnits="userSpaceOnUse">
<stop stop-color="#7FD9A1"/>
<stop offset="1" stop-color="#43A481"/>
</linearGradient>
<linearGradient id="paint3_linear_887_9826" x1="173.284" y1="89.8251" x2="198.587" y2="147.857" gradientUnits="userSpaceOnUse">
<stop stop-color="#F2A83C"/>
<stop offset="1" stop-color="#F7E3AD"/>
</linearGradient>
<linearGradient id="paint4_linear_887_9826" x1="170.751" y1="76.7115" x2="196.464" y2="139.255" gradientUnits="userSpaceOnUse">
<stop stop-color="#7FD9A1"/>
<stop offset="1" stop-color="#43A481"/>
</linearGradient>
<linearGradient id="paint5_linear_887_9826" x1="192.915" y1="146.263" x2="191.029" y2="127.732" gradientUnits="userSpaceOnUse">
<stop stop-color="#F2A83C"/>
<stop offset="1" stop-color="#F7E3AD"/>
</linearGradient>
<linearGradient id="paint6_linear_887_9826" x1="200.644" y1="179.033" x2="196.235" y2="135.708" gradientUnits="userSpaceOnUse">
<stop stop-color="#F2A83C"/>
<stop offset="1" stop-color="#F7E3AD"/>
</linearGradient>
<linearGradient id="paint7_linear_887_9826" x1="159.118" y1="183.034" x2="151.815" y2="181.138" gradientUnits="userSpaceOnUse">
<stop stop-color="#EEA085"/>
<stop offset="1" stop-color="#DA5D2E"/>
</linearGradient>
<linearGradient id="paint8_linear_887_9826" x1="45.0101" y1="65.9889" x2="34.3572" y2="55.2867" gradientUnits="userSpaceOnUse">
<stop stop-color="#F2A83C"/>
<stop offset="1" stop-color="#F7E3AD"/>
</linearGradient>
<linearGradient id="paint9_linear_887_9826" x1="169.497" y1="15.9795" x2="158.844" y2="5.2772" gradientUnits="userSpaceOnUse">
<stop stop-color="#F2A83C"/>
<stop offset="1" stop-color="#F7E3AD"/>
</linearGradient>
<linearGradient id="paint10_linear_887_9826" x1="249.789" y1="110.604" x2="239.136" y2="99.9018" gradientUnits="userSpaceOnUse">
<stop stop-color="#F2A83C"/>
<stop offset="1" stop-color="#F7E3AD"/>
</linearGradient>
<linearGradient id="paint11_linear_887_9826" x1="104.382" y1="34.7031" x2="98.2591" y2="28.5522" gradientUnits="userSpaceOnUse">
<stop stop-color="#F2A83C"/>
<stop offset="1" stop-color="#F7E3AD"/>
</linearGradient>
<linearGradient id="paint12_linear_887_9826" x1="46.1703" y1="126.398" x2="40.0477" y2="120.247" gradientUnits="userSpaceOnUse">
<stop stop-color="#F2A83C"/>
<stop offset="1" stop-color="#F7E3AD"/>
</linearGradient>
<linearGradient id="paint13_linear_887_9826" x1="205.103" y1="59.9695" x2="198.981" y2="53.8185" gradientUnits="userSpaceOnUse">
<stop stop-color="#F2A83C"/>
<stop offset="1" stop-color="#F7E3AD"/>
</linearGradient>
<clipPath id="clip0_887_9826">
<rect width="277" height="203" fill="white"/>
</clipPath>
</defs>
</svg>
